<?xml version="1.0" encoding="UTF-8"?>
<svg id="Calque_1" data-name="Calque 1" xmlns="http://www.w3.org/2000/svg" viewBox="0 0 1920 1080">
  <defs>
    <style>
      .cls-1 {
        font-family: Helvetica-Light, Helvetica;
        font-size: 66.43px;
        font-weight: 300;
      }

      .cls-2 {
        fill: #1d1d1b;
      }

      .cls-3 {
        fill: #78bce8;
      }

      .cls-4 {
        fill: #54a6dc;
      }

      .cls-5 {
        fill: #1d70b7;
      }

      .cls-6 {
        fill: #2a85c6;
      }

      .cls-7 {
        opacity: .5;
      }

      .cls-8 {
        font-family: Palatino-Bold, Palatino;
        font-size: 73.27px;
        font-weight: 700;
      }

      .cls-9 {
        fill: #418ccb;
      }

      .cls-10 {
        fill: #a0d3f3;
      }
    </style>
  </defs>
  <text class="cls-2" transform="translate(475.85 433.87)"><tspan class="cls-8"><tspan x="0" y="0">ECOLE SUPÉRIEURE MOHAMMED VI </tspan></tspan><tspan class="cls-8"><tspan x="0" y="87.92">D’INGÉNIEURS EN SCIENCES </tspan></tspan><tspan class="cls-8"><tspan x="0" y="175.84">DE LA SANTÉ</tspan></tspan><tspan class="cls-1"><tspan x="0" y="259.75">UM</tspan><tspan x="103.29" y="259.75">6</tspan><tspan x="140.23" y="259.75">SS </tspan></tspan></text>
  <g>
    <g class="cls-7">
      <path class="cls-9" d="M372.72,655.56c-2.71-.89-9.73-2.6-16.1.92-30.3,21.4-63.38,35.28-95.7,38.26-23.9,2.19-44.94-1.78-62.37-10.76l21.38,10.31,6.66,2.94c16.25,7.03,35.32,9.99,56.64,8.01,32.39-2.99,65.53-16.89,95.92-38.35,7.08-6.53-6.27-11.3-6.42-11.34"/>
      <path class="cls-10" d="M232.9,607.16c-2.28-1.38-8.15-4.36-13.54-2.13-19.39,11.38-39.64,18.67-59.54,20.63-31.99,3.15-57.78-8.01-74.71-29.11,5.02,5.81,11.65,13.56,16.98,19.23l.86.9c17.56,18.23,42.53,27.53,72.84,24.56,20.77-2.03,41.91-9.63,62.14-21.52,5.42-4.48-2-10.71-5.02-12.56"/>
      <path class="cls-4" d="M395.59,575.09c-2.71-.85-9.6-2.25-14.76,2.85-41.47,53.26-99.46,91.43-155.15,96.56-27.84,2.58-51.73-3.42-70.42-16.08l16.78,10.73,8.61,5.08c18.03,10.38,40.26,15.11,65.76,12.75,56.56-5.21,115.44-43.95,157.55-98.03,5.26-9.16-8.23-13.82-8.38-13.86"/>
      <path class="cls-6" d="M361.47,700.13c-2.68-.73-9.65-2.18-16.33-.13-15.9,6.36-32.02,10.49-47.96,11.96-19.46,1.8-37.01-.5-52.26-6.28,7.8,2.73,18.16,6.5,26.04,8.98l3.1.96c13.58,4.14,28.84,5.63,45.5,4.11,15.75-1.46,31.68-5.55,47.4-11.84,6.42-3.38-2.02-6.81-5.49-7.76"/>
      <path class="cls-3" d="M371.78,532.6c-2.74-.81-9.59-2.08-14.1,3.18-39.79,62.7-103.66,109.7-164.67,115.33-31.2,2.88-57.21-5.49-76.13-22.13,6.53,5.37,15.15,12.58,21.95,17.78,18.93,14.3,43.8,21.23,73.14,18.53,62.77-5.79,128.47-54.14,169.42-118.66,3.61-8.11-5.98-12.96-9.62-14.02"/>
      <path class="cls-5" d="M409.91,703.32c-2.74-.45-9.82-1.19-16.26,1.53-15.17,7.95-30.79,13.69-46.49,16.77-19.17,3.76-36.87,3.26-52.63-.93,8.03,1.92,18.72,4.62,26.81,6.29l3.19.64c13.93,2.74,29.26,2.67,45.68-.54,15.52-3.06,30.95-8.74,45.95-16.6,6.05-4.02-2.7-6.57-6.25-7.16"/>
    </g>
    <path class="cls-9" d="M298.42,360.94l-38.76-10.53,8.92,9.35c-.05.03-.11.04-.17.07-53.99,36.95-99.74,97.89-117.63,164.22-20.14,74.76.67,135.66,47.76,159.95l21.38,10.3,6.65,2.95c-51.29-22.19-74.72-85.12-53.7-163.05,17.1-63.4,59.7-121.68,110.58-159.08l6.71,6.67,8.25-20.83Z"/>
    <path class="cls-5" d="M323.72,435.44l-39.23.99,9.55,5.38s-.1.05-.14.09c-41.98,40.7-72.05,99.46-75.91,157.23-4.33,65.11,25.8,110.96,72.91,121.75l21.25,4.3,6.56,1.13c-50.52-8.25-83.4-55.25-78.86-123.13,3.69-55.23,33.46-109.13,72.55-149.61l7.81,4.66,3.52-22.78Z"/>
    <path class="cls-4" d="M173.47,437.19l7.57,4.57.06-22.77-39.27-1.73,13.58,8.64s-.02.02-.03.03c-16.74,25.08-29.79,52.73-37.52,81.41-18.36,68.06-2.03,124.37,37.39,151.07l16.78,10.73,8.61,5.08c-44.13-25.38-63.2-84.65-43.69-156.94,7.58-28.17,20.32-55.31,36.51-80.1"/>
    <path class="cls-6" d="M205.03,559.18l9.46,3.11-6.32-25.03-35.55,10.62,8.5,2.98c-12.46,75.04,12.8,133.9,62.17,153.85,7.74,3.09,18.22,6.74,26.04,9.59l3.1,1.03c-53.3-17.33-80.95-78.01-67.4-156.15"/>
    <path class="cls-3" d="M105.76,500.64c3.89-14.48,9.18-28.69,15.61-42.43l12.29,6.22-3.41-23.27-38.23,1.38,13.12,7.04c-.05.08-.11.12-.16.21-6.27,13.36-11.39,27.2-15.21,41.28-16.14,59.89-4.24,110.3,27.11,137.91,6.31,5.48,15.32,12.49,21.96,17.78-36.1-27.28-50.56-81.3-33.08-146.12"/>
    <path class="cls-10" d="M128.56,390.11l11.74,7.3.68-22.65-39.41-2.27,14.48,9.5c-22.33,27.47-39.75,59.75-48.9,93.63-13.59,50.43-5.95,93.68,17.11,120.66,5.15,5.85,12.56,13.49,18.06,19.22l.92.91c-28.21-27.5-38.48-75.29-23.28-131.7,9.2-34.09,26.49-66.59,48.6-94.58"/>
  </g>
</svg>