<?xml version="1.0" encoding="UTF-8"?>
<svg id="Calque_1" data-name="Calque 1" xmlns="http://www.w3.org/2000/svg" viewBox="0 0 1920 1080">
  <defs>
    <style>
      .cls-1 {
        font-family: Helvetica-Light, Helvetica;
        font-size: 78.77px;
        font-weight: 300;
      }

      .cls-2 {
        opacity: .5;
      }

      .cls-2, .cls-3 {
        fill: #2e2980;
      }

      .cls-4 {
        fill: #1d1d1b;
      }

      .cls-5 {
        font-family: Palatino-Bold, Palatino;
        font-size: 86.88px;
        font-weight: 700;
      }
    </style>
  </defs>
  <g>
    <path class="cls-3" d="M419.47,330.79l-45.28-12.3,10.43,10.93c-.06.03-.13.04-.2.08-63.08,43.17-116.53,114.37-137.43,191.86-23.53,87.34.78,158.49,55.8,186.88l24.97,12.03,7.77,3.44c-59.92-25.93-87.3-99.45-62.74-190.5,19.98-74.08,69.75-142.16,129.2-185.87l7.84,7.79,9.64-24.34Z"/>
    <path class="cls-3" d="M449.03,417.84l-45.83,1.16,11.15,6.29c-.05.04-.11.06-.17.1-49.05,47.55-84.18,116.2-88.69,183.7-5.06,76.08,30.14,129.64,85.19,142.25l24.83,5.02,7.67,1.32c-59.03-9.64-97.45-64.55-92.14-143.86,4.31-64.53,39.1-127.5,84.76-174.79l9.12,5.44,4.11-26.61Z"/>
    <path class="cls-3" d="M273.48,419.88l8.85,5.34.07-26.6-45.88-2.02,15.87,10.1s-.02.02-.03.03c-19.55,29.3-34.81,61.61-43.84,95.12-21.45,79.52-2.37,145.31,43.69,176.5l19.61,12.54,10.06,5.93c-51.56-29.65-73.84-98.9-51.04-183.36,8.85-32.92,23.74-64.62,42.65-93.58"/>
    <path class="cls-3" d="M310.36,562.41l11.05,3.64-7.39-29.24-41.53,12.41,9.94,3.49c-14.56,87.67,14.95,156.44,72.64,179.75,9.05,3.61,21.29,7.87,30.42,11.2l3.63,1.2c-62.27-20.25-94.57-91.15-78.75-182.44"/>
    <path class="cls-3" d="M194.38,494.01c4.55-16.91,10.73-33.52,18.24-49.57l14.36,7.27-3.99-27.19-44.67,1.62,15.33,8.22c-.06.09-.13.14-.19.24-7.33,15.61-13.31,31.78-17.77,48.23-18.86,69.98-4.96,128.87,31.68,161.13,7.37,6.41,17.9,14.59,25.66,20.77-42.18-31.87-59.07-94.99-38.65-170.72"/>
    <path class="cls-3" d="M221.02,364.87l13.72,8.52.8-26.46-46.05-2.66,16.92,11.1c-26.09,32.09-46.44,69.81-57.13,109.4-15.88,58.92-6.96,109.45,19.99,140.97,6.02,6.84,14.68,15.77,21.11,22.46l1.07,1.06c-32.96-32.13-44.96-87.97-27.2-153.88,10.74-39.83,30.95-77.81,56.78-110.51"/>
    <g>
      <path class="cls-2" d="M506.28,675.02c-3.16-1.04-11.37-3.03-18.81,1.08-35.41,25-74.05,41.22-111.81,44.7-27.92,2.56-52.5-2.08-72.88-12.57l24.97,12.05,7.78,3.44c18.98,8.22,41.26,11.67,66.18,9.36,37.84-3.5,76.57-19.73,112.07-44.81,8.28-7.62-7.33-13.21-7.5-13.25"/>
      <path class="cls-2" d="M342.93,618.46c-2.66-1.61-9.52-5.09-15.82-2.49-22.65,13.3-46.31,21.81-69.56,24.1-37.38,3.67-67.5-9.36-87.29-34.01,5.87,6.79,13.61,15.84,19.83,22.46l1.01,1.05c20.52,21.29,49.69,32.17,85.1,28.7,24.26-2.37,48.97-11.25,72.6-25.14,6.33-5.24-2.34-12.52-5.86-14.67"/>
      <path class="cls-2" d="M533,581c-3.17-.99-11.22-2.63-17.25,3.33-48.45,62.23-116.2,106.82-181.27,112.81-32.52,3.02-60.44-4-82.27-18.79l19.61,12.54,10.06,5.94c21.07,12.13,47.04,17.66,76.83,14.9,66.08-6.08,134.87-51.35,184.08-114.54,6.15-10.71-9.61-16.15-9.79-16.19"/>
      <path class="cls-2" d="M493.14,727.09c-3.14-.85-11.27-2.55-19.08-.15-18.57,7.44-37.41,12.26-56.03,13.97-22.73,2.1-43.25-.59-61.06-7.33,9.11,3.19,21.21,7.6,30.42,10.49l3.62,1.13c15.87,4.84,33.69,6.58,53.16,4.81,18.4-1.71,37.02-6.48,55.38-13.84,7.51-3.95-2.36-7.96-6.41-9.07"/>
      <path class="cls-2" d="M505.18,531.36c-3.2-.94-11.21-2.43-16.47,3.71-46.49,73.25-121.11,128.17-192.39,134.75-36.45,3.37-66.84-6.42-88.95-25.86,7.63,6.27,17.7,14.7,25.65,20.77,22.12,16.71,51.18,24.8,85.45,21.65,73.34-6.76,150.1-63.25,197.95-138.63,4.22-9.48-6.98-15.14-11.24-16.38"/>
      <path class="cls-2" d="M549.73,730.82c-3.21-.52-11.47-1.39-18.99,1.79-17.72,9.28-35.97,16-54.32,19.6-22.4,4.4-43.08,3.81-61.49-1.09,9.39,2.25,21.87,5.4,31.33,7.34l3.72.75c16.27,3.2,34.18,3.12,53.37-.63,18.13-3.57,36.16-10.21,53.68-19.4,7.07-4.69-3.15-7.68-7.3-8.37"/>
    </g>
  </g>
  <text class="cls-4" transform="translate(636.21 463.98)"><tspan class="cls-5"><tspan x="0" y="0">FACULTÉ MOHAMMED VI</tspan></tspan><tspan class="cls-5"><tspan x="0" y="104.26">DE MÉDECINE</tspan></tspan><tspan class="cls-1"><tspan x="0" y="203.75">UM</tspan><tspan x="122.48" y="203.75">6</tspan><tspan x="166.28" y="203.75">SS </tspan></tspan></text>
</svg>