<?xml version="1.0" encoding="UTF-8"?>
<svg id="Calque_1" data-name="Calque 1" xmlns="http://www.w3.org/2000/svg" viewBox="0 0 1920 1080">
  <defs>
    <style>
      .cls-1 {
        fill: #2aa037;
      }

      .cls-2 {
        fill: #1d1d1b;
      }

      .cls-3 {
        fill: #1d70b7;
      }

      .cls-4 {
        opacity: .5;
      }

      .cls-5 {
        font-family: Palatino-Bold, Palatino;
        font-size: 83.1px;
        font-weight: 700;
      }

      .cls-6 {
        font-family: Helvetica-Light, Helvetica;
        font-size: 75.34px;
        font-weight: 300;
      }
    </style>
  </defs>
  <g>
    <g class="cls-4">
      <path class="cls-3" d="M467.98,669.7c-3.04-1-10.92-2.91-18.07,1.03-34.01,24.02-71.14,39.6-107.41,42.94-26.82,2.46-50.44-2-70.01-12.07l23.99,11.57,7.47,3.3c18.23,7.89,39.64,11.21,63.57,8.99,36.35-3.36,73.55-18.95,107.65-43.04,7.95-7.32-7.04-12.69-7.2-12.72"/>
    </g>
    <g class="cls-4">
      <path class="cls-1" d="M311.06,615.37c-2.55-1.55-9.14-4.89-15.2-2.4-21.76,12.77-44.48,20.95-66.82,23.15-35.91,3.53-64.85-8.99-83.85-32.67,5.64,6.52,13.07,15.22,19.05,21.58l.97,1.01c19.71,20.46,47.73,30.9,81.75,27.57,23.31-2.28,47.04-10.81,69.74-24.15,6.08-5.03-2.24-12.03-5.63-14.09"/>
    </g>
    <g class="cls-4">
      <path class="cls-1" d="M493.64,579.38c-3.04-.95-10.78-2.52-16.57,3.19-46.54,59.78-111.63,102.62-174.13,108.37-31.24,2.9-58.06-3.84-79.03-18.05l18.84,12.04,9.66,5.7c20.24,11.65,45.19,16.96,73.81,14.31,63.48-5.85,129.56-49.33,176.83-110.03,5.91-10.28-9.23-15.51-9.4-15.55"/>
    </g>
    <g class="cls-4">
      <path class="cls-3" d="M455.35,719.72c-3.01-.81-10.83-2.45-18.32-.15-17.84,7.14-35.94,11.77-53.82,13.42-21.84,2.02-41.54-.56-58.66-7.04,8.75,3.06,20.38,7.3,29.22,10.08l3.48,1.08c15.24,4.65,32.36,6.32,51.06,4.62,17.67-1.64,35.56-6.23,53.2-13.29,7.21-3.8-2.27-7.64-6.16-8.71"/>
    </g>
    <g class="cls-4">
      <path class="cls-1" d="M466.92,531.7c-3.07-.91-10.77-2.34-15.82,3.57-44.66,70.37-116.34,123.12-184.82,129.44-35.02,3.23-64.21-6.16-85.44-24.84,7.33,6.02,17.01,14.12,24.64,19.95,21.24,16.05,49.16,23.82,82.09,20.79,70.45-6.5,144.19-60.76,190.15-133.17,4.05-9.11-6.71-14.54-10.8-15.74"/>
    </g>
    <path class="cls-3" d="M384.59,339.03l-43.5-11.82,10.02,10.5c-.06.03-.13.04-.19.07-60.6,41.47-111.95,109.86-132.02,184.31-22.6,83.9.75,152.25,53.6,179.52l23.99,11.56,7.47,3.31c-57.56-24.91-83.86-95.53-60.27-183,19.19-71.16,67-136.56,124.11-178.55l7.53,7.48,9.26-23.38Z"/>
    <path class="cls-3" d="M412.98,422.65l-44.03,1.11,10.71,6.04c-.05.04-.11.06-.16.1-47.12,45.68-80.87,111.63-85.2,176.47-4.86,73.08,28.96,124.54,81.83,136.65l23.85,4.82,7.37,1.26c-56.7-9.26-93.61-62.01-88.51-138.2,4.14-61.99,37.56-122.48,81.42-167.91l8.76,5.23,3.95-25.57Z"/>
    <path class="cls-1" d="M244.35,424.61l8.5,5.13.07-25.55-44.07-1.94,15.24,9.7s-.02.02-.03.03c-18.78,28.15-33.44,59.19-42.11,91.37-20.6,76.38-2.28,139.59,41.97,169.55l18.84,12.04,9.66,5.7c-49.53-28.48-70.93-95-49.03-176.14,8.51-31.62,22.81-62.07,40.97-89.89"/>
    <path class="cls-3" d="M279.77,561.53l10.61,3.49-7.1-28.09-39.89,11.92,9.54,3.35c-13.98,84.22,14.36,150.28,69.78,172.67,8.69,3.47,20.45,7.56,29.23,10.76l3.48,1.15c-59.82-19.46-90.85-87.56-75.65-175.26"/>
    <path class="cls-1" d="M168.36,495.82c4.37-16.25,10.3-32.2,17.52-47.62l13.8,6.98-3.83-26.12-42.91,1.55,14.73,7.9c-.06.09-.12.14-.18.23-7.04,15-12.79,30.53-17.07,46.33-18.12,67.22-4.76,123.79,30.43,154.78,7.08,6.16,17.19,14.01,24.65,19.95-40.52-30.61-56.74-91.24-37.13-164"/>
    <path class="cls-1" d="M193.95,371.77l13.18,8.19.77-25.42-44.24-2.55,16.26,10.66c-25.06,30.83-44.61,67.06-54.88,105.09-15.26,56.6-6.68,105.14,19.2,135.42,5.78,6.57,14.1,15.14,20.27,21.57l1.03,1.02c-31.66-30.86-43.19-84.5-26.13-147.82,10.32-38.26,29.73-74.74,54.54-106.16"/>
    <g class="cls-4">
      <path class="cls-3" d="M509.72,723.3c-3.08-.5-11.02-1.34-18.24,1.72-17.02,8.92-34.56,15.37-52.18,18.83-21.52,4.23-41.38,3.66-59.07-1.04,9.02,2.16,21.01,5.19,30.09,7.05l3.58.72c15.63,3.07,32.84,3,51.27-.6,17.42-3.43,34.74-9.81,51.57-18.63,6.79-4.51-3.03-7.37-7.01-8.04"/>
    </g>
  </g>
  <text class="cls-2" transform="translate(583.94 469.86)"><tspan class="cls-5"><tspan x="0" y="0">ECOLE MOHAMMED VI</tspan></tspan><tspan class="cls-5"><tspan x="0" y="99.72">DE MÉDECINE VÉTÉRINAIRE</tspan></tspan><tspan class="cls-6"><tspan x="0" y="194.88">UM</tspan><tspan x="117.15" y="194.88">6</tspan><tspan x="159.04" y="194.88">SS </tspan></tspan></text>
</svg>