<?xml version="1.0" encoding="UTF-8"?>
<svg id="Calque_1" data-name="Calque 1" xmlns="http://www.w3.org/2000/svg" viewBox="0 0 1920 1080">
  <defs>
    <style>
      .cls-1, .cls-2 {
        fill: #00827f;
      }

      .cls-3 {
        fill: #1d1d1b;
      }

      .cls-4 {
        font-family: Palatino-Bold, Palatino;
        font-size: 83.1px;
        font-weight: 700;
      }

      .cls-5 {
        font-family: Helvetica-Light, Helvetica;
        font-size: 75.34px;
        font-weight: 300;
      }

      .cls-2 {
        opacity: .5;
      }
    </style>
  </defs>
  <g>
    <path class="cls-1" d="M444.47,339.9l-43.31-11.77,9.97,10.45c-.06.03-.13.04-.19.07-60.33,41.29-111.46,109.39-131.45,183.51-22.5,83.54.75,151.59,53.37,178.75l23.89,11.51,7.43,3.29c-57.31-24.8-83.5-95.12-60.01-182.21,19.11-70.85,66.71-135.97,123.57-177.77l7.5,7.45,9.22-23.28Z"/>
    <path class="cls-1" d="M472.74,423.16l-43.84,1.11,10.67,6.01c-.05.04-.11.06-.16.1-46.91,45.48-80.52,111.14-84.83,175.7-4.84,72.77,28.83,124,81.48,136.06l23.75,4.8,7.34,1.26c-56.46-9.22-93.2-61.74-88.13-137.6,4.12-61.72,37.39-121.95,81.07-167.18l8.72,5.2,3.93-25.46Z"/>
    <path class="cls-1" d="M304.84,425.11l8.46,5.11.07-25.44-43.88-1.93,15.17,9.66s-.02.02-.03.03c-18.7,28.02-33.29,58.93-41.93,90.98-20.52,76.05-2.27,138.98,41.79,168.82l18.76,11.99,9.62,5.67c-49.32-28.36-70.62-94.59-48.82-175.38,8.47-31.48,22.71-61.8,40.8-89.51"/>
    <path class="cls-1" d="M340.1,561.43l10.57,3.48-7.07-27.97-39.72,11.87,9.5,3.33c-13.92,83.85,14.3,149.63,69.47,171.92,8.65,3.45,20.36,7.53,29.1,10.71l3.47,1.15c-59.56-19.37-90.46-87.18-75.32-174.5"/>
    <path class="cls-1" d="M229.18,496.01c4.35-16.18,10.26-32.06,17.45-47.41l13.74,6.95-3.82-26-42.73,1.55,14.66,7.86c-.06.09-.12.14-.18.23-7.01,14.93-12.73,30.39-17,46.13-18.04,66.93-4.74,123.26,30.3,154.11,7.05,6.13,17.12,13.95,24.54,19.87-40.34-30.48-56.5-90.85-36.97-163.29"/>
    <path class="cls-1" d="M254.65,372.5l13.12,8.15.77-25.31-44.04-2.54,16.19,10.61c-24.95,30.7-44.42,66.77-54.65,104.63-15.19,56.36-6.65,104.68,19.12,134.83,5.76,6.54,14.04,15.08,20.19,21.48l1.02,1.01c-31.52-30.73-43.01-84.14-26.02-147.18,10.28-38.1,29.6-74.42,54.31-105.7"/>
    <g>
      <path class="cls-2" d="M527.5,669.14c-3.03-1-10.87-2.9-17.99,1.03-33.86,23.91-70.83,39.43-106.95,42.75-26.71,2.45-50.22-1.99-69.7-12.02l23.89,11.52,7.44,3.29c18.15,7.86,39.47,11.16,63.3,8.95,36.19-3.34,73.23-18.87,107.19-42.85,7.92-7.29-7.01-12.63-7.17-12.67"/>
      <path class="cls-2" d="M371.26,615.05c-2.54-1.54-9.1-4.87-15.13-2.39-21.66,12.72-44.29,20.86-66.53,23.05-35.75,3.51-64.56-8.96-83.49-32.53,5.61,6.49,13.01,15.15,18.97,21.48l.96,1.01c19.62,20.37,47.53,30.77,81.39,27.45,23.2-2.27,46.83-10.76,69.44-24.05,6.05-5.01-2.24-11.97-5.61-14.03"/>
      <path class="cls-2" d="M553.05,579.21c-3.03-.95-10.73-2.51-16.5,3.18-46.34,59.52-111.14,102.17-173.38,107.9-31.11,2.88-57.81-3.82-78.69-17.97l18.76,11.99,9.62,5.68c20.15,11.6,44.99,16.89,73.49,14.25,63.21-5.82,129-49.12,176.06-109.55,5.88-10.24-9.19-15.44-9.36-15.49"/>
      <path class="cls-2" d="M514.92,718.94c-3-.81-10.78-2.44-18.25-.15-17.76,7.11-35.79,11.72-53.59,13.36-21.74,2.01-41.36-.56-58.4-7.01,8.71,3.05,20.29,7.26,29.09,10.03l3.47,1.08c15.17,4.63,32.22,6.29,50.84,4.6,17.6-1.64,35.4-6.2,52.97-13.24,7.18-3.78-2.26-7.61-6.13-8.67"/>
      <path class="cls-2" d="M526.45,531.73c-3.06-.9-10.72-2.33-15.75,3.55-44.46,70.06-115.84,122.59-184.02,128.88-34.86,3.22-63.93-6.14-85.07-24.74,7.3,6,16.93,14.06,24.53,19.87,21.15,15.98,48.95,23.72,81.73,20.7,70.15-6.47,143.57-60.5,189.33-132.6,4.04-9.07-6.68-14.48-10.75-15.67"/>
      <path class="cls-2" d="M569.06,722.51c-3.07-.5-10.98-1.33-18.17,1.71-16.95,8.88-34.41,15.3-51.95,18.74-21.43,4.21-41.2,3.65-58.81-1.04,8.98,2.15,20.92,5.16,29.96,7.02l3.56.72c15.57,3.06,32.69,2.98,51.05-.6,17.34-3.42,34.59-9.77,51.35-18.55,6.76-4.49-3.02-7.34-6.98-8.01"/>
    </g>
  </g>
  <text class="cls-3" transform="translate(648.85 467.29)"><tspan class="cls-4"><tspan x="0" y="0">FACULTÉ MOHAMMED VI</tspan></tspan><tspan class="cls-4"><tspan x="0" y="99.72">DE PHARMACIE</tspan></tspan><tspan class="cls-5"><tspan x="0" y="194.88">UM</tspan><tspan x="117.15" y="194.88">6</tspan><tspan x="159.04" y="194.88">SS </tspan></tspan></text>
</svg>