<?xml version="1.0" encoding="UTF-8"?>
<svg id="Calque_1" data-name="Calque 1" xmlns="http://www.w3.org/2000/svg" viewBox="0 0 1920 1080">
  <defs>
    <style>
      .cls-1 {
        font-family: Palatino-Bold, Palatino;
        font-size: 84.87px;
        font-weight: 700;
      }

      .cls-2 {
        fill: #1d1d1b;
      }

      .cls-3, .cls-4 {
        fill: #7e4091;
      }

      .cls-4 {
        opacity: .5;
      }

      .cls-5 {
        font-family: Helvetica-Light, Helvetica;
        font-size: 76.94px;
        font-weight: 300;
      }
    </style>
  </defs>
  <g>
    <path class="cls-3" d="M435.13,335.64l-44.23-12.02,10.18,10.68c-.06.03-.13.04-.19.07-61.62,42.17-113.83,111.72-134.25,187.42-22.98,85.32.76,154.82,54.5,182.55l24.4,11.75,7.59,3.36c-58.54-25.33-85.28-97.15-61.29-186.09,19.51-72.36,68.13-138.87,126.21-181.56l7.66,7.61,9.42-23.78Z"/>
    <path class="cls-3" d="M464,420.67l-44.77,1.13,10.89,6.14c-.05.04-.11.06-.16.1-47.91,46.45-82.23,113.51-86.64,179.44-4.94,74.31,29.45,126.64,83.21,138.95l24.25,4.9,7.49,1.29c-57.66-9.42-95.19-63.06-90-140.53,4.21-63.03,38.19-124.55,82.8-170.74l8.91,5.31,4.01-26Z"/>
    <path class="cls-3" d="M292.52,422.66l8.64,5.21.07-25.98-44.82-1.97,15.5,9.87s-.02.02-.03.03c-19.1,28.62-34,60.18-42.82,92.91-20.95,77.67-2.32,141.94,42.68,172.41l19.16,12.25,9.82,5.79c-50.37-28.96-72.12-96.6-49.86-179.11,8.65-32.15,23.19-63.12,41.66-91.41"/>
    <path class="cls-3" d="M328.54,561.89l10.79,3.55-7.22-28.56-40.57,12.12,9.71,3.4c-14.22,85.64,14.6,152.82,70.95,175.58,8.84,3.53,20.8,7.69,29.72,10.94l3.54,1.17c-60.83-19.78-92.38-89.03-76.93-178.21"/>
    <path class="cls-3" d="M215.25,495.08c4.45-16.52,10.48-32.74,17.82-48.42l14.03,7.1-3.9-26.56-43.64,1.58,14.98,8.03c-.06.09-.13.14-.18.24-7.16,15.25-13,31.04-17.36,47.11-18.42,68.36-4.84,125.88,30.94,157.4,7.2,6.26,17.48,14.25,25.07,20.29-41.2-31.13-57.7-92.78-37.76-166.76"/>
    <path class="cls-3" d="M241.27,368.93l13.4,8.33.78-25.85-44.98-2.6,16.53,10.84c-25.48,31.35-45.37,68.19-55.81,106.86-15.51,57.56-6.79,106.91,19.53,137.7,5.88,6.68,14.34,15.4,20.62,21.94l1.05,1.04c-32.19-31.38-43.92-85.93-26.57-150.31,10.49-38.91,30.23-76,55.46-107.95"/>
    <g>
      <path class="cls-4" d="M519.93,671.89c-3.09-1.02-11.1-2.96-18.38,1.05-34.59,24.42-72.34,40.27-109.22,43.66-27.28,2.5-51.29-2.03-71.19-12.28l24.4,11.77,7.6,3.36c18.54,8.03,40.31,11.4,64.65,9.14,36.97-3.42,74.79-19.27,109.47-43.77,8.09-7.45-7.16-12.9-7.32-12.94"/>
      <path class="cls-4" d="M360.36,616.65c-2.6-1.58-9.3-4.97-15.46-2.44-22.13,12.99-45.24,21.3-67.95,23.54-36.51,3.59-65.94-9.15-85.27-33.22,5.73,6.63,13.29,15.48,19.37,21.94l.98,1.03c20.04,20.8,48.54,31.42,83.13,28.03,23.7-2.32,47.83-10.99,70.92-24.56,6.18-5.11-2.28-12.23-5.73-14.33"/>
      <path class="cls-4" d="M546.03,580.05c-3.09-.97-10.96-2.57-16.85,3.25-47.33,60.79-113.51,104.35-177.07,110.2-31.77,2.95-59.04-3.9-80.36-18.35l19.16,12.25,9.83,5.8c20.58,11.85,45.95,17.25,75.05,14.55,64.55-5.94,131.75-50.16,179.81-111.88,6.01-10.46-9.39-15.77-9.56-15.82"/>
      <path class="cls-4" d="M507.09,722.75c-3.06-.83-11.01-2.49-18.63-.15-18.14,7.26-36.55,11.97-54.73,13.65-22.21,2.05-42.24-.57-59.65-7.16,8.9,3.12,20.72,7.42,29.71,10.25l3.54,1.1c15.5,4.72,32.91,6.43,51.92,4.69,17.97-1.67,36.16-6.33,54.09-13.52,7.33-3.86-2.3-7.77-6.26-8.86"/>
      <path class="cls-4" d="M518.85,531.56c-3.13-.92-10.95-2.38-16.09,3.63-45.41,71.56-118.3,125.2-187.94,131.63-35.61,3.29-65.29-6.27-86.88-25.26,7.45,6.12,17.29,14.36,25.06,20.29,21.6,16.32,49.99,24.23,83.47,21.14,71.64-6.6,146.63-61.78,193.36-135.42,4.12-9.26-6.82-14.79-10.98-16.01"/>
      <path class="cls-4" d="M562.37,726.4c-3.13-.51-11.21-1.36-18.55,1.75-17.31,9.07-35.14,15.63-53.06,19.14-21.88,4.3-42.08,3.72-60.06-1.06,9.17,2.19,21.37,5.27,30.6,7.17l3.64.73c15.9,3.13,33.39,3.05,52.13-.61,17.71-3.49,35.33-9.98,52.44-18.95,6.9-4.59-3.08-7.5-7.13-8.18"/>
    </g>
  </g>
  <text class="cls-2" transform="translate(640.59 465.74)"><tspan class="cls-1"><tspan x="0" y="0">FACULTÉ MOHAMMED VI</tspan></tspan><tspan class="cls-1"><tspan x="0" y="101.84">DE MÉDECINE DENTAIRE</tspan></tspan><tspan class="cls-5"><tspan x="0" y="199.03">UM</tspan><tspan x="119.65" y="199.03">6</tspan><tspan x="162.43" y="199.03">SS </tspan></tspan></text>
</svg>