<?xml version="1.0" encoding="UTF-8"?>
<svg id="Calque_1" data-name="Calque 1" xmlns="http://www.w3.org/2000/svg" viewBox="0 0 1920 1080">
  <defs>
    <style>
      .cls-1 {
        font-family: Palatino-Bold, Palatino;
        font-size: 79.89px;
        font-weight: 700;
      }

      .cls-2 {
        fill: #1d1d1b;
      }

      .cls-3, .cls-4 {
        fill: #cd181b;
      }

      .cls-4 {
        opacity: .5;
      }

      .cls-5 {
        font-family: Helvetica-Light, Helvetica;
        font-size: 72.43px;
        font-weight: 300;
      }
    </style>
  </defs>
  <text class="cls-2" transform="translate(553.49 422.16)"><tspan class="cls-1"><tspan x="0" y="0">FACULTÉ MOHAMMED VI</tspan></tspan><tspan class="cls-1"><tspan x="0" y="95.87">DES SCIENCES INFIRMIÈRES</tspan></tspan><tspan class="cls-1"><tspan x="0" y="191.73">ET PROFESSIONS DE LA SANTÉ</tspan></tspan><tspan class="cls-5"><tspan x="0" y="283.22">UM</tspan><tspan x="112.63" y="283.22">6</tspan><tspan x="152.9" y="283.22">SS </tspan></tspan></text>
  <g>
    <path class="cls-3" d="M361.3,345.84l-42.02-11.42,9.68,10.14c-.06.03-.12.04-.18.07-58.54,40.06-108.15,106.14-127.54,178.06-21.83,81.06.73,147.09,51.78,173.44l23.18,11.17,7.21,3.19c-55.61-24.06-81.02-92.3-58.23-176.8,18.54-68.75,64.73-131.94,119.91-172.5l7.28,7.23,8.95-22.59Z"/>
    <path class="cls-3" d="M388.74,426.63l-42.53,1.08,10.35,5.83s-.1.06-.15.09c-45.52,44.13-78.13,107.84-82.31,170.49-4.7,70.6,27.98,120.31,79.06,132.02l23.04,4.66,7.12,1.22c-54.78-8.95-90.44-59.91-85.51-133.52,4-59.88,36.28-118.33,78.66-162.22l8.47,5.05,3.81-24.7Z"/>
    <path class="cls-3" d="M225.82,428.52l8.21,4.95.07-24.68-42.58-1.87,14.72,9.37s-.02.02-.03.03c-18.15,27.19-32.3,57.18-40.68,88.27-19.91,73.8-2.2,134.86,40.55,163.8l18.2,11.64,9.33,5.5c-47.85-27.52-68.52-91.78-47.37-170.17,8.22-30.55,22.03-59.97,39.58-86.85"/>
    <path class="cls-3" d="M260.04,560.8l10.25,3.37-6.86-27.14-38.54,11.52,9.22,3.23c-13.51,81.36,13.87,145.19,67.41,166.82,8.4,3.35,19.76,7.31,28.24,10.4l3.37,1.11c-57.79-18.8-87.77-84.59-73.09-169.32"/>
    <path class="cls-3" d="M152.41,497.32c4.22-15.7,9.96-31.11,16.93-46l13.33,6.74-3.7-25.23-41.46,1.5,14.23,7.63c-.05.09-.12.13-.17.22-6.8,14.49-12.36,29.49-16.5,44.76-17.5,64.94-4.6,119.6,29.4,149.54,6.84,5.95,16.61,13.54,23.82,19.28-39.15-29.57-54.82-88.15-35.87-158.44"/>
    <path class="cls-3" d="M177.13,377.47l12.73,7.91.74-24.56-42.74-2.47,15.71,10.3c-24.21,29.78-43.1,64.78-53.02,101.53-14.74,54.68-6.46,101.57,18.55,130.83,5.59,6.35,13.62,14.63,19.59,20.84l.99.98c-30.59-29.82-41.73-81.64-25.24-142.81,9.97-36.96,28.72-72.21,52.69-102.56"/>
    <g>
      <path class="cls-4" d="M441.87,665.31c-2.94-.97-10.55-2.81-17.46,1-32.86,23.2-68.73,38.26-103.77,41.48-25.91,2.38-48.73-1.93-67.63-11.66l23.18,11.18,7.22,3.19c17.62,7.63,38.29,10.83,61.42,8.69,35.12-3.24,71.06-18.31,104-41.58,7.68-7.08-6.8-12.26-6.96-12.29"/>
      <path class="cls-4" d="M290.27,612.82c-2.47-1.5-8.83-4.72-14.69-2.31-21.02,12.34-42.98,20.24-64.56,22.36-34.69,3.41-62.65-8.69-81.01-31.56,5.45,6.3,12.63,14.7,18.41,20.85l.93.98c19.04,19.76,46.11,29.85,78.98,26.63,22.52-2.2,45.44-10.44,67.38-23.33,5.87-4.86-2.17-11.62-5.44-13.61"/>
      <path class="cls-4" d="M466.67,578.05c-2.94-.92-10.41-2.44-16.01,3.09-44.96,57.75-107.84,99.14-168.23,104.7-30.18,2.8-56.09-3.71-76.35-17.44l18.2,11.64,9.33,5.51c19.55,11.26,43.65,16.39,71.31,13.83,61.33-5.65,125.17-47.66,170.84-106.3,5.71-9.94-8.92-14.98-9.08-15.03"/>
      <path class="cls-4" d="M429.67,713.63c-2.91-.79-10.46-2.37-17.7-.14-17.24,6.9-34.72,11.37-52,12.97-21.1,1.95-40.13-.55-56.67-6.81,8.46,2.96,19.69,7.05,28.23,9.74l3.36,1.04c14.72,4.49,31.27,6.11,49.33,4.46,17.08-1.59,34.35-6.02,51.39-12.84,6.97-3.67-2.19-7.39-5.95-8.42"/>
      <path class="cls-4" d="M440.85,531.98c-2.97-.88-10.4-2.26-15.28,3.44-43.14,67.98-112.4,118.95-178.55,125.06-33.83,3.12-62.03-5.95-82.55-24,7.08,5.82,16.43,13.64,23.81,19.28,20.52,15.51,47.5,23.02,79.3,20.09,68.06-6.28,139.31-58.7,183.71-128.66,3.92-8.8-6.48-14.05-10.43-15.21"/>
      <path class="cls-4" d="M482.19,717.09c-2.97-.49-10.65-1.29-17.63,1.66-16.45,8.62-33.39,14.85-50.41,18.19-20.79,4.08-39.98,3.54-57.07-1.01,8.71,2.08,20.3,5.01,29.07,6.82l3.45.7c15.1,2.97,31.72,2.89,49.53-.58,16.82-3.32,33.56-9.48,49.82-18,6.56-4.36-2.93-7.12-6.78-7.77"/>
    </g>
  </g>
</svg>