<?xml version="1.0" encoding="UTF-8"?>
<svg id="Calque_1" data-name="Calque 1" xmlns="http://www.w3.org/2000/svg" viewBox="0 0 2230.99 1080">
  <defs>
    <style>
      .cls-1 {
        fill: #10682f;
      }

      .cls-2 {
        fill: #1d1d1b;
      }

      .cls-3 {
        fill: #d3161b;
      }
    </style>
  </defs>
  <g>
    <path class="cls-2" d="M688.14,410.21v-3.37l13.19.24,5.48-.08,5.48-.12,1.5-.04v3.37c-2.92,0-4.77.26-5.56.77-.4.24-.68.72-.81,1.42-.38,1.68-.57,5.37-.57,11.08v9.42l.04,4.75c0,4.95.06,8.01.16,9.17.24,2.54.88,4.59,1.91,6.15,1.02,1.56,2.6,2.81,4.73,3.77,2.12.96,4.82,1.44,8.1,1.44,3.76,0,6.76-.64,8.99-1.93s3.82-2.95,4.77-5.01c.95-2.06,1.42-5.97,1.42-11.73v-8.28c0-7.14-.01-11.5-.04-13.07-.08-3.41-.27-5.47-.57-6.17-.19-.43-.5-.76-.93-.98-.89-.46-2.84-.73-5.84-.81v-3.37c4.89.19,7.8.28,8.72.28.24,0,.61-.02,1.1-.04l9.01-.24v3.37c-2.52,0-4.1.2-4.75.61-.32.22-.59.63-.79,1.24-.2.61-.4,3.35-.59,8.22-.19,4.87-.28,8.71-.28,11.53v9.54c0,2.43-.18,4.95-.53,7.55-.35,2.6-1.06,4.81-2.13,6.66-1.07,1.84-2.57,3.5-4.52,4.99s-4.26,2.61-6.94,3.37-5.78,1.14-9.29,1.14c-4.11,0-7.96-.56-11.53-1.66-2.6-.81-4.72-1.9-6.37-3.27-1.65-1.37-2.91-2.9-3.77-4.59-.86-1.69-1.39-3.32-1.58-4.89-.13-.97-.2-3.6-.2-7.87l.04-7.79v-10.31c0-3.79-.08-7.2-.24-10.23-.08-1.19-.24-2.06-.49-2.6-.13-.3-.47-.65-1.01-1.06l-5.27-.57Z"/>
    <path class="cls-2" d="M753.76,460.17c3.19-.16,5.02-.31,5.48-.45.3-.11.55-.28.75-.53.2-.24.37-.74.5-1.5.16-1.03.35-3.51.57-7.46.11-2.25.16-5.17.16-8.77v-13.03l-.16-11.81c-.03-1.98-.11-3.26-.24-3.86-.13-.59-.33-1.03-.59-1.32-.26-.28-.68-.51-1.28-.67-.6-.16-2.33-.34-5.19-.52v-3.41c3.43.16,5.97.24,7.59.24l5.89-.12,3.73-.12c5.58,7.28,12.33,15.66,20.25,25.16,5.71,6.84,10.45,12.2,14.2,16.07v-9.37c0-14.56-.16-23.12-.48-25.69-.11-1-.35-1.65-.73-1.95-.62-.48-2.73-.76-6.33-.81v-3.41c3.3.16,6.33.24,9.09.24s6.13-.08,10.35-.24v3.41c-3.3.08-5.26.32-5.88.73-.22.14-.36.34-.44.61-.41,1.35-.67,4.45-.79,9.27-.12,4.83-.18,8.4-.18,10.69,0,17.99.18,28.91.53,32.75l-.53.36c-2.27-.38-4.59-.73-6.94-1.05-8.74-9.77-21.13-24.43-37.17-43.99v20.21c0,4.19.08,8.56.24,13.11.11,3.14.27,5.05.48,5.72.11.32.29.59.55.79.26.2.71.35,1.36.43,1.76.22,3.05.32,3.85.32.16,0,.43-.01.81-.04v3.29c-5.14-.05-8.06-.08-8.76-.08-2.63,0-6.18.08-10.67.24v-3.45Z"/>
    <path class="cls-2" d="M849.5,406.85v3.57c-2.73.08-4.36.18-4.87.3-.52.12-.88.27-1.1.45s-.36.4-.45.67c-.19.46-.32,1.34-.4,2.64-.06.7-.1,2.03-.12,3.98-.11,6.66-.16,10.24-.16,10.75v16.35l.12,7.43c0,2.79.14,4.6.41,5.44.11.38.29.67.55.87.26.2.66.36,1.22.49.55.12,2.16.21,4.81.26v3.57c-4.41-.16-9.12-.24-14.12-.24-4.36,0-8.24.08-11.65.24v-3.57c2.81-.11,4.43-.2,4.87-.28.57-.1.96-.26,1.16-.44.2-.19.33-.4.39-.65.08-.32.19-1.6.32-3.82.22-3.25.32-6.25.32-9.01v-16.96c0-5.38-.03-8.85-.08-10.39-.14-3.43-.3-5.59-.49-6.45-.08-.35-.21-.62-.38-.81s-.5-.34-.98-.47c-.47-.12-2.19-.24-5.13-.34v-3.57c3.41.16,7.32.24,11.73.24,4.95,0,9.63-.08,14.04-.24Z"/>
    <path class="cls-2" d="M882.29,463.91c-2.3-5.68-4.5-11.08-6.62-16.19l-5.76-13.76c-4.52-10.79-7.3-17.23-8.34-19.29-1.04-2.07-1.83-3.25-2.38-3.55-.81-.43-2.49-.67-5.03-.73v-3.53c6.49.19,10.44.28,11.85.28l14.57-.28v3.53c-2.27.03-3.92.16-4.95.4-.6.14-1.01.33-1.24.59-.23.26-.34.59-.34,1,0,.81.89,3.38,2.68,7.71,1.03,2.49,1.58,3.84,1.64,4.04.06.2.15.46.26.75l10.27,25.04,9.01-22.32c.22-.51,1.18-3.07,2.88-7.67,1.22-3.25,1.96-5.42,2.23-6.54.05-.32.08-.65.08-.97,0-.46-.08-.8-.22-1.04-.15-.23-.34-.4-.59-.5-.19-.08-.68-.15-1.46-.2-1.76-.16-3.25-.26-4.46-.28v-3.53l10.31.24,8.77-.24v3.53c-2.63.24-4.15.53-4.59.85-.73.57-2.26,3.64-4.59,9.21l-2.88,6.74-5.48,13.07c-4.65,11.15-7.8,19.03-9.46,23.66h-6.17Z"/>
    <path class="cls-2" d="M921.77,463.62v-2.19c1.62-.76,2.95-1.54,3.98-2.35.16-1.14.3-2.97.4-5.52.22-4.65.32-8.04.32-10.15v-18.26c0-.7-.04-3.34-.12-7.91-.08-3.06-.27-4.93-.57-5.6-.14-.27-.34-.47-.61-.61-.73-.32-2.68-.57-5.84-.73v-3.45l9.41.2c1.87.03,3.65.04,5.36.04,3.71,0,7.83-.04,12.38-.12l8.24-.2c.97,0,2.95.05,5.92.16.27,0,.72.08,1.34.24l.28.53-.77,5.84c-.02.4-.16,2.35-.4,5.84h-3.17c-.06-3.19-.18-5.15-.36-5.88-.11-.38-.27-.65-.49-.81-.35-.24-1.43-.46-3.25-.65-2.68-.3-5.3-.45-7.87-.45-2.41,0-4.87.1-7.39.28-.38,3.06-.57,6.94-.57,11.65v8.32c1.84.14,3.76.2,5.76.2.62,0,2.87-.06,6.74-.16,1.46-.02,2.32-.12,2.58-.28.26-.16.45-.44.59-.85.32-1.03.52-2.75.57-5.15h3.29l-.16,8.92.16,8.89h-3.49c.02-3.14-.18-5.07-.61-5.8-.32-.54-.9-.88-1.74-1.02-1.87-.3-4.26-.44-7.18-.44-2.63,0-4.79.08-6.5.24v17.21c0,1.92.04,3.57.12,4.95,2.19.16,4.79.24,7.79.24s5.62-.1,8.1-.28c2.47-.19,3.99-.46,4.56-.81.19-.11.37-.35.53-.73.49-1.3,1-3.76,1.54-7.39h3.33c-.6,5.36-.89,9.77-.89,13.23l-.53.53c-1.73.19-4.19.28-7.38.28l-6.54-.12c-6.44-.08-10.88-.12-13.31-.12-.65,0-5.17.08-13.56.24Z"/>
    <path class="cls-2" d="M970.87,410.21v-3.33c.62,0,2.79.06,6.5.16,1.81.06,4.38.08,7.71.08,2.84,0,5.27-.06,7.3-.16,3.35-.14,6.13-.2,8.32-.2,4.25,0,7.43.3,9.54.91,2.11.61,3.91,1.87,5.4,3.79,1.49,1.92,2.23,4.26,2.23,7.02,0,3.27-1.02,6.25-3.05,8.93-2.03,2.68-5.15,4.8-9.37,6.37.68,1.22,1.44,2.46,2.31,3.73.86,1.27,1.37,2.04,1.52,2.31.15.27.3.52.47.77l6.29,9.46c1.68,2.52,2.59,3.87,2.72,4.06,2.03,2.71,3.27,4.3,3.73,4.79.46.48.9.82,1.34,1.01s1.28.3,2.56.32v3.37c-4.17-.11-7.18-.16-9.05-.16-2.17,0-4.31.06-6.45.16-.14-.6-.46-1.37-.98-2.31l-8.68-14.33c-2.49-4.11-4.6-7.34-6.33-9.7-.86-1.19-1.7-2.09-2.51-2.68l.44-1.34c3.25.11,5.7-.22,7.35-.99,1.65-.77,3.04-2.15,4.18-4.14,1.14-1.99,1.7-4.21,1.7-6.68s-.6-4.56-1.78-6.21c-1.19-1.65-2.67-2.8-4.43-3.45-1.13-.41-3.16-.61-6.09-.61-1.3,0-2.58.11-3.85.32-.08.97-.16,3.17-.24,6.58-.16,7.66-.24,12.77-.24,15.34,0,4.06.04,8.36.12,12.9.11,5.58.19,8.74.24,9.5.08,1.52.23,2.5.44,2.96.11.22.28.41.53.59s.64.32,1.18.43,2.11.19,4.71.24v3.57c-4.63-.16-9.31-.24-14.04-.24-4.22,0-8.13.08-11.73.24v-3.57c3.09-.11,4.91-.26,5.48-.44.33-.08.56-.22.71-.41.15-.19.26-.56.34-1.13.19-1.06.32-2.65.4-4.79l.33-11.85v-15.06l-.16-8.56c-.06-3.38-.22-5.41-.49-6.09-.14-.3-.34-.53-.61-.69-.65-.32-2.65-.59-6.01-.81Z"/>
    <path class="cls-2" d="M1069.41,421.7h-3.41c-.06-3.14-.19-5.35-.41-6.66-.84-1.19-2.29-2.25-4.36-3.17s-4.39-1.38-6.96-1.38c-3.68,0-6.53.93-8.54,2.78-2.02,1.85-3.03,4.03-3.03,6.51.03,1.79.32,3.23.89,4.34.57,1.11,1.38,1.99,2.44,2.64,1.05.65,2.61,1.24,4.67,1.78,1.57.32,3.75.73,6.55,1.22,2.8.49,4.62.82,5.46,1.01,2.19.57,3.97,1.25,5.32,2.05,1.35.8,2.43,1.72,3.23,2.76.8,1.04,1.45,2.35,1.97,3.94.51,1.58.77,3.36.77,5.33,0,3.46-.72,6.51-2.15,9.13-1.08,1.97-2.59,3.78-4.51,5.41-1.92,1.64-3.89,2.86-5.92,3.67-3.25,1.3-7.14,1.95-11.69,1.95-3.33,0-6.29-.31-8.88-.94-2.6-.62-5.45-1.69-8.56-3.21.84-3.08,1.27-7.78,1.3-14.08h3.41c-.05,1.95.1,4.37.45,7.26,1.03,1.68,2.79,3.15,5.27,4.42s5.21,1.91,8.16,1.91c2.57,0,4.86-.45,6.88-1.36,2.02-.9,3.48-2.16,4.38-3.75.91-1.6,1.36-3.41,1.36-5.44,0-1.7-.32-3.17-.95-4.38-.64-1.22-1.63-2.19-2.99-2.92-1.35-.73-3.73-1.49-7.14-2.27-4.9-1.03-8.12-1.77-9.66-2.23-2.33-.7-4.2-1.72-5.62-3.05-1.42-1.32-2.48-2.93-3.19-4.81-.7-1.88-1.06-3.9-1.06-6.07,0-3.03.64-5.82,1.91-8.38,1.27-2.56,2.95-4.54,5.03-5.95,2.09-1.4,4.44-2.41,7.06-3.02,2.62-.61,5.31-.92,8.08-.92s5.65.26,8.34.77c2.69.52,5.03,1.26,7,2.23l.33.97c-.38,1.76-.66,3.49-.83,5.17-.18,1.69-.3,3.92-.39,6.68Z"/>
    <path class="cls-2" d="M1108.05,406.85v3.57c-2.73.08-4.36.18-4.87.3-.52.12-.88.27-1.1.45s-.36.4-.45.67c-.19.46-.32,1.34-.4,2.64-.06.7-.1,2.03-.12,3.98-.11,6.66-.16,10.24-.16,10.75v16.35l.12,7.43c0,2.79.14,4.6.41,5.44.11.38.29.67.55.87.26.2.66.36,1.22.49.55.12,2.16.21,4.81.26v3.57c-4.41-.16-9.12-.24-14.12-.24-4.36,0-8.24.08-11.65.24v-3.57c2.81-.11,4.43-.2,4.87-.28.57-.1.96-.26,1.16-.44.2-.19.33-.4.39-.65.08-.32.19-1.6.32-3.82.22-3.25.32-6.25.32-9.01v-16.96c0-5.38-.03-8.85-.08-10.39-.14-3.43-.3-5.59-.49-6.45-.08-.35-.21-.62-.38-.81s-.5-.34-.98-.47c-.47-.12-2.19-.24-5.13-.34v-3.57c3.41.16,7.32.24,11.73.24,4.95,0,9.63-.08,14.04-.24Z"/>
    <path class="cls-2" d="M1125.29,463.62v-3.33c3.25-.11,5.17-.32,5.78-.65s1.02-.86,1.24-1.62c.3-1.16.44-4.67.44-10.51v-24.31c0-6.63-.04-10.33-.12-11.12h-5.8c-2.92,0-5.49.1-7.71.28-.89.08-1.4.19-1.54.32-.19.16-.35.64-.49,1.42-.35,1.89-.56,4.02-.61,6.37h-3.37c-.11-5.55-.18-8.67-.2-9.38-.08-1.19-.22-2.47-.41-3.85l.37-.4c1.27.14,2.62.23,4.06.28,2.33.08,6.8.12,13.43.12h16.4c6.82,0,11.37-.04,13.68-.12,1.24-.06,2.5-.15,3.77-.28l.4.4c-.24,1.65-.39,3.1-.44,4.34-.03.22-.08,3.18-.16,8.89h-3.37c-.05-2.11-.23-4.13-.52-6.05-.16-.97-.34-1.56-.53-1.74-.16-.14-.6-.23-1.3-.28-2.22-.22-4.88-.32-7.99-.32h-5.8c-.08.95-.12,4.65-.12,11.12v24.31c0,5.84.15,9.36.45,10.55.19.7.59,1.22,1.22,1.56.62.34,2.56.56,5.8.67v3.33c-5.25-.24-9.67-.37-13.27-.37-3.84,0-8.26.12-13.27.37Z"/>
    <path class="cls-2" d="M1171.11,463.62v-2.19c1.62-.76,2.95-1.54,3.98-2.35.16-1.14.3-2.97.4-5.52.22-4.65.32-8.04.32-10.15v-18.26c0-.7-.04-3.34-.12-7.91-.08-3.06-.27-4.93-.57-5.6-.14-.27-.34-.47-.61-.61-.73-.32-2.68-.57-5.84-.73v-3.45l9.41.2c1.87.03,3.65.04,5.36.04,3.71,0,7.83-.04,12.38-.12l8.24-.2c.97,0,2.95.05,5.92.16.27,0,.72.08,1.34.24l.28.53-.77,5.84c-.02.4-.16,2.35-.4,5.84h-3.17c-.06-3.19-.18-5.15-.36-5.88-.11-.38-.27-.65-.49-.81-.35-.24-1.43-.46-3.25-.65-2.68-.3-5.3-.45-7.87-.45-2.41,0-4.87.1-7.39.28-.38,3.06-.57,6.94-.57,11.65v8.32c1.84.14,3.76.2,5.76.2.62,0,2.87-.06,6.74-.16,1.46-.02,2.32-.12,2.58-.28.26-.16.45-.44.59-.85.32-1.03.52-2.75.57-5.15h3.29l-.16,8.92.16,8.89h-3.49c.02-3.14-.18-5.07-.61-5.8-.32-.54-.9-.88-1.74-1.02-1.87-.3-4.26-.44-7.18-.44-2.63,0-4.79.08-6.5.24v17.21c0,1.92.04,3.57.12,4.95,2.19.16,4.79.24,7.79.24s5.62-.1,8.1-.28c2.47-.19,3.99-.46,4.56-.81.19-.11.37-.35.53-.73.49-1.3,1-3.76,1.54-7.39h3.33c-.6,5.36-.89,9.77-.89,13.23l-.53.53c-1.73.19-4.19.28-7.38.28l-6.54-.12c-6.44-.08-10.88-.12-13.31-.12-.65,0-5.17.08-13.56.24ZM1188.76,402.99h-4.91l9.54-11.56c1.38-1.68,2.48-2.77,3.31-3.27.82-.5,1.76-.75,2.82-.75,1.41,0,2.55.41,3.41,1.24.86.82,1.3,1.82,1.3,2.98,0,.78-.24,1.5-.73,2.15-.78,1-2.15,2.05-4.1,3.17l-10.63,6.04Z"/>
    <path class="cls-2" d="M1240.58,463.62v-3.45c3.06-.22,4.87-.43,5.44-.65.32-.11.58-.3.77-.57.24-.35.4-.87.48-1.54.19-1.54.35-4.91.49-10.11.08-2.51.12-6.84.12-12.98,0-5.49-.04-10.36-.12-14.59-.08-4.23-.26-6.76-.53-7.57-.11-.38-.28-.67-.51-.87-.23-.2-.67-.36-1.32-.46-1.78-.3-3.4-.48-4.83-.53v-3.45c5.58.16,9.42.24,11.53.24,2.79,0,5.59-.08,8.4-.24l3.57,8.04,2.84,6.09,12.91,26.62c2.76-5.33,4.83-9.47,6.21-12.41l5.35-11.24c2.98-6.28,4.8-10.14,5.46-11.59.66-1.45,1.41-3.28,2.25-5.5,3.55.19,5.82.28,6.82.28l12.09-.28v3.45h-.57c-2.73-.03-4.46.29-5.19.95-.73.66-1.09,1.94-1.09,3.83,0,2.25-.02,3.95-.04,5.11l-.2,11.4v14.24c0,3.47.01,5.49.04,6.09.22,3.44.4,5.55.57,6.33.08.38.23.68.44.91.22.23.53.41.94.53.4.12,2.11.28,5.11.47v3.45l-12.94-.24-12.66.24v-3.45c3.35-.11,5.27-.3,5.74-.59.47-.28.81-.93,1.01-1.93.2-1,.3-4.35.3-10.07v-29.54l-9.41,19.03-4.51,9.46c-1.19,2.49-2.87,6.1-5.03,10.83-1.32,2.87-2.37,5.18-3.13,6.94h-2.76c-.98-2.27-2.38-5.38-4.22-9.33-3.14-6.76-5.52-11.81-7.14-15.14l-10.67-21.8v19.93c0,3.33.04,7.28.14,11.87s.2,7.18.3,7.79c.11.61.28,1.05.51,1.32.23.27.64.5,1.22.69s2.24.36,4.97.53v3.45c-3.03-.16-6.13-.24-9.29-.24-4.14,0-7.43.08-9.86.24Z"/>
    <path class="cls-2" d="M1325.16,435.9c0-4.95.75-9.27,2.25-12.95,1.5-3.68,3.65-6.8,6.43-9.37,2.79-2.57,5.82-4.42,9.09-5.56,4.19-1.43,8.77-2.15,13.72-2.15s9.39.69,13.39,2.07c2.98,1.05,5.61,2.57,7.89,4.56,2.29,1.99,4.03,4.03,5.21,6.11,1.19,2.09,2.09,4.37,2.7,6.86s.91,5.23.91,8.24c0,5.09-.88,9.81-2.64,14.16-1.3,3.25-3.2,6.13-5.7,8.64-2.5,2.52-5.35,4.45-8.54,5.8-4.38,1.81-9.39,2.72-15.01,2.72-6.09,0-11.32-1.1-15.68-3.31-4.37-2.21-7.8-5.46-10.29-9.76-2.49-4.3-3.73-9.66-3.73-16.07ZM1337.66,433.51c0,6.3.87,11.52,2.6,15.64,1.73,4.13,3.95,7.04,6.66,8.74s5.9,2.56,9.58,2.56c3.41,0,6.46-.81,9.15-2.44,2.69-1.62,4.8-4.37,6.33-8.24,1.53-3.87,2.29-8.56,2.29-14.08,0-3.79-.42-7.25-1.24-10.39-.82-3.14-2.01-5.81-3.55-8.02-1.54-2.21-3.36-3.89-5.46-5.05-2.1-1.16-4.87-1.74-8.34-1.74-3.95,0-7.31.93-10.08,2.78-2.77,1.85-4.79,4.59-6.05,8.22-1.26,3.63-1.89,7.63-1.89,12.01Z"/>
    <path class="cls-2" d="M1392.89,463.62v-3.57c2.57-.05,4.14-.13,4.71-.24s.99-.26,1.26-.47c.27-.2.46-.49.56-.87.27-.81.42-2.69.45-5.64l.16-8.07v-18.99l-.16-8c-.03-3-.18-4.91-.45-5.72-.11-.38-.29-.67-.54-.87-.26-.2-.67-.37-1.24-.49s-2.15-.21-4.75-.26v-3.57c4.44.16,9.12.24,14.04.24,4.41,0,8.32-.08,11.73-.24v3.57c-2.9.11-4.6.22-5.11.34-.51.12-.88.32-1.1.59-.22.27-.38,1.22-.48,2.84-.24,2.76-.36,6.74-.36,11.93v4.67c1.95.16,6.03.24,12.25.24,7.84,0,12.69-.08,14.53-.24v-4.67c0-4.19-.03-6.88-.08-8.08-.22-3.6-.38-5.63-.49-6.09-.08-.32-.21-.57-.38-.75s-.5-.32-.98-.45c-.47-.12-2.17-.24-5.09-.34v-3.57c3.41.16,7.32.24,11.73.24,4.92,0,9.61-.08,14.04-.24v3.57c-2.57.06-4.14.14-4.71.24s-.98.26-1.26.47c-.27.2-.46.49-.57.87-.27.84-.42,2.72-.44,5.64l-.16,8.12v18.99l.16,7.95c.02,3.03.16,4.94.4,5.72.14.38.33.68.59.89s.67.38,1.24.49,2.15.19,4.75.24v3.57c-4.44-.16-9.12-.24-14.04-.24-4.41,0-8.32.08-11.73.24v-3.57c2.89-.11,4.6-.22,5.11-.34.52-.12.88-.32,1.1-.59.22-.27.38-1.22.49-2.84.22-2.76.32-6.74.32-11.93v-8.48c-1.35-.19-5.29-.28-11.81-.28s-10.41.03-12.5.08c-.84.03-1.66.1-2.47.2v8.48c0,4.22.04,6.92.12,8.08.22,3.6.38,5.64.49,6.13.08.3.21.54.38.71s.5.32.97.44c.48.12,2.17.24,5.09.34v3.57c-3.41-.16-7.32-.24-11.73-.24-4.92,0-9.6.08-14.04.24Z"/>
    <path class="cls-2" d="M1461.23,463.62v-3.37c2.19-.16,3.49-.3,3.91-.42.42-.12.78-.31,1.08-.57s.6-.66.91-1.22c.31-.55,1.24-2.62,2.78-6.19.7-1.68,2.05-4.99,4.06-9.94l10.59-26.13,3.57-9.21h5.76l18.14,42.37,2.52,5.56,1.62,3.73c.27.49.52.84.77,1.06s.52.38.83.48c.31.11,1.1.2,2.37.28.41.06,1,.12,1.78.2v3.37l-11.28-.24-14.24.24v-3.37c3.27-.14,5.12-.32,5.54-.55.42-.23.63-.61.63-1.16,0-.68-.31-1.78-.94-3.33l-3.49-8.93h-20.86l-1.78,4.87c-1.35,3.73-2.03,6.06-2.03,6.98,0,.65.22,1.11.65,1.38.65.38,2.59.62,5.8.73v3.37l-9.37-.24-9.33.24ZM1479.17,441.67c2.54.08,5.42.12,8.64.12s5.9-.04,8.36-.12l-8.68-20.94-8.32,20.94Z"/>
    <path class="cls-2" d="M1526.81,463.62v-3.45c3.06-.22,4.87-.43,5.44-.65.32-.11.58-.3.77-.57.24-.35.4-.87.48-1.54.19-1.54.35-4.91.49-10.11.08-2.51.12-6.84.12-12.98,0-5.49-.04-10.36-.12-14.59-.08-4.23-.26-6.76-.53-7.57-.11-.38-.28-.67-.51-.87-.23-.2-.67-.36-1.32-.46-1.78-.3-3.4-.48-4.83-.53v-3.45c5.58.16,9.42.24,11.53.24,2.79,0,5.59-.08,8.4-.24l3.57,8.04,2.84,6.09,12.91,26.62c2.76-5.33,4.83-9.47,6.21-12.41l5.35-11.24c2.98-6.28,4.8-10.14,5.46-11.59.66-1.45,1.41-3.28,2.25-5.5,3.55.19,5.82.28,6.82.28l12.09-.28v3.45h-.57c-2.73-.03-4.46.29-5.19.95-.73.66-1.09,1.94-1.09,3.83,0,2.25-.02,3.95-.04,5.11l-.2,11.4v14.24c0,3.47.01,5.49.04,6.09.22,3.44.4,5.55.57,6.33.08.38.23.68.44.91.22.23.53.41.94.53.4.12,2.11.28,5.11.47v3.45l-12.94-.24-12.66.24v-3.45c3.35-.11,5.27-.3,5.74-.59.47-.28.81-.93,1.01-1.93.2-1,.3-4.35.3-10.07v-29.54l-9.41,19.03-4.51,9.46c-1.19,2.49-2.87,6.1-5.03,10.83-1.32,2.87-2.37,5.18-3.13,6.94h-2.76c-.98-2.27-2.38-5.38-4.22-9.33-3.14-6.76-5.52-11.81-7.14-15.14l-10.67-21.8v19.93c0,3.33.04,7.28.14,11.87s.2,7.18.3,7.79.28,1.05.51,1.32c.23.27.64.5,1.22.69s2.24.36,4.97.53v3.45c-3.03-.16-6.13-.24-9.29-.24-4.14,0-7.43.08-9.86.24Z"/>
    <path class="cls-2" d="M1609.93,463.62v-3.45c3.06-.22,4.87-.43,5.44-.65.32-.11.58-.3.77-.57.24-.35.4-.87.48-1.54.19-1.54.35-4.91.49-10.11.08-2.51.12-6.84.12-12.98,0-5.49-.04-10.36-.12-14.59-.08-4.23-.26-6.76-.53-7.57-.11-.38-.28-.67-.51-.87-.23-.2-.67-.36-1.32-.46-1.78-.3-3.4-.48-4.83-.53v-3.45c5.58.16,9.42.24,11.53.24,2.79,0,5.59-.08,8.4-.24l3.57,8.04,2.84,6.09,12.91,26.62c2.76-5.33,4.83-9.47,6.21-12.41l5.35-11.24c2.98-6.28,4.8-10.14,5.46-11.59.66-1.45,1.41-3.28,2.25-5.5,3.55.19,5.82.28,6.82.28l12.09-.28v3.45h-.57c-2.73-.03-4.46.29-5.19.95-.73.66-1.09,1.94-1.09,3.83,0,2.25-.02,3.95-.04,5.11l-.2,11.4v14.24c0,3.47.01,5.49.04,6.09.22,3.44.4,5.55.57,6.33.08.38.23.68.44.91.22.23.53.41.94.53.4.12,2.11.28,5.11.47v3.45l-12.94-.24-12.66.24v-3.45c3.35-.11,5.27-.3,5.74-.59.47-.28.81-.93,1.01-1.93.2-1,.3-4.35.3-10.07v-29.54l-9.41,19.03-4.51,9.46c-1.19,2.49-2.87,6.1-5.03,10.83-1.32,2.87-2.37,5.18-3.13,6.94h-2.76c-.98-2.27-2.38-5.38-4.22-9.33-3.14-6.76-5.52-11.81-7.14-15.14l-10.67-21.8v19.93c0,3.33.04,7.28.14,11.87s.2,7.18.3,7.79.28,1.05.51,1.32c.23.27.64.5,1.22.69s2.24.36,4.97.53v3.45c-3.03-.16-6.13-.24-9.29-.24-4.14,0-7.43.08-9.86.24Z"/>
    <path class="cls-2" d="M1695.11,463.62v-2.19c1.62-.76,2.95-1.54,3.98-2.35.16-1.14.3-2.97.4-5.52.22-4.65.32-8.04.32-10.15v-18.26c0-.7-.04-3.34-.12-7.91-.08-3.06-.27-4.93-.57-5.6-.14-.27-.34-.47-.61-.61-.73-.32-2.68-.57-5.84-.73v-3.45l9.41.2c1.87.03,3.65.04,5.36.04,3.71,0,7.83-.04,12.38-.12l8.24-.2c.97,0,2.95.05,5.92.16.27,0,.72.08,1.34.24l.28.53-.77,5.84c-.02.4-.16,2.35-.4,5.84h-3.17c-.06-3.19-.18-5.15-.36-5.88-.11-.38-.27-.65-.49-.81-.35-.24-1.43-.46-3.25-.65-2.68-.3-5.3-.45-7.87-.45-2.41,0-4.87.1-7.39.28-.38,3.06-.57,6.94-.57,11.65v8.32c1.84.14,3.76.2,5.76.2.62,0,2.87-.06,6.74-.16,1.46-.02,2.32-.12,2.58-.28.26-.16.45-.44.59-.85.32-1.03.52-2.75.57-5.15h3.29l-.16,8.92.16,8.89h-3.49c.02-3.14-.18-5.07-.61-5.8-.32-.54-.9-.88-1.74-1.02-1.87-.3-4.26-.44-7.18-.44-2.63,0-4.79.08-6.5.24v17.21c0,1.92.04,3.57.12,4.95,2.19.16,4.79.24,7.79.24s5.62-.1,8.1-.28c2.47-.19,3.99-.46,4.56-.81.19-.11.37-.35.53-.73.49-1.3,1-3.76,1.54-7.39h3.33c-.6,5.36-.89,9.77-.89,13.23l-.53.53c-1.73.19-4.19.28-7.38.28l-6.54-.12c-6.44-.08-10.88-.12-13.31-.12-.65,0-5.17.08-13.56.24Z"/>
    <path class="cls-2" d="M1746.2,463.62v-1.95c.22-.14.6-.35,1.14-.65,1.03-.57,1.98-1.16,2.84-1.78.3-3.63.45-9.51.45-17.65v-6.66c0-3.57-.07-8.81-.2-15.7-.08-3.82-.26-6.25-.53-7.31-.08-.24-.19-.43-.32-.57-.22-.22-.56-.38-1.02-.48s-2.16-.35-5.11-.73v-3.29l14.73.24c1.73,0,4.99-.07,9.78-.2,3.47-.08,6.24-.12,8.32-.12,4.79,0,8.62.29,11.51.87,2.88.58,5.39,1.51,7.53,2.8,2.14,1.28,3.94,2.81,5.42,4.57,1.47,1.76,2.59,3.65,3.35,5.68,1.27,3.41,1.91,7.14,1.91,11.2,0,5.17-.95,9.78-2.84,13.84-1.89,4.06-4.5,7.45-7.81,10.19s-6.91,4.7-10.77,5.91c-3.87,1.2-8.54,1.8-14,1.8l-12.05-.24-12.3.24ZM1762.43,458.67c2.52.38,4.93.57,7.22.57,3.6,0,6.79-.38,9.58-1.14,2.06-.57,3.86-1.39,5.4-2.48,1.54-1.08,3.02-2.68,4.44-4.79,1.42-2.11,2.53-4.63,3.31-7.55.78-2.93,1.18-6.08,1.18-9.46,0-3.09-.39-6.07-1.18-8.95-.78-2.88-2.07-5.4-3.86-7.57-1.78-2.17-4.04-3.73-6.78-4.71-2.73-.98-6.87-1.46-12.42-1.46-2.08,0-4.38.18-6.9.52-.27,3.84-.4,11.08-.4,21.71v9.34c0,8.06.14,13.38.4,15.95Z"/>
    <path class="cls-2" d="M1861.05,463.91c-2.3-5.68-4.5-11.08-6.62-16.19l-5.76-13.76c-4.52-10.79-7.3-17.23-8.34-19.29-1.04-2.07-1.83-3.25-2.38-3.55-.81-.43-2.49-.67-5.03-.73v-3.53c6.49.19,10.44.28,11.85.28l14.57-.28v3.53c-2.27.03-3.92.16-4.95.4-.6.14-1.01.33-1.24.59-.23.26-.34.59-.34,1,0,.81.89,3.38,2.68,7.71,1.03,2.49,1.58,3.84,1.64,4.04.06.2.15.46.26.75l10.27,25.04,9.01-22.32c.22-.51,1.18-3.07,2.88-7.67,1.22-3.25,1.96-5.42,2.23-6.54.05-.32.08-.65.08-.97,0-.46-.08-.8-.22-1.04-.15-.23-.34-.4-.59-.5-.19-.08-.68-.15-1.46-.2-1.76-.16-3.25-.26-4.46-.28v-3.53l10.31.24,8.77-.24v3.53c-2.63.24-4.15.53-4.59.85-.73.57-2.26,3.64-4.59,9.21l-2.88,6.74-5.48,13.07c-4.65,11.15-7.8,19.03-9.46,23.66h-6.17Z"/>
    <path class="cls-2" d="M1925.25,406.85v3.57c-2.73.08-4.36.18-4.87.3-.52.12-.88.27-1.1.45s-.36.4-.45.67c-.19.46-.32,1.34-.4,2.64-.06.7-.1,2.03-.12,3.98-.11,6.66-.16,10.24-.16,10.75v16.35l.12,7.43c0,2.79.14,4.6.41,5.44.11.38.29.67.55.87.26.2.66.36,1.22.49.55.12,2.16.21,4.81.26v3.57c-4.41-.16-9.12-.24-14.12-.24-4.36,0-8.24.08-11.65.24v-3.57c2.81-.11,4.43-.2,4.87-.28.57-.1.96-.26,1.16-.44.2-.19.33-.4.39-.65.08-.32.19-1.6.32-3.82.22-3.25.32-6.25.32-9.01v-16.96c0-5.38-.03-8.85-.08-10.39-.14-3.43-.3-5.59-.49-6.45-.08-.35-.21-.62-.38-.81s-.5-.34-.98-.47c-.47-.12-2.19-.24-5.13-.34v-3.57c3.41.16,7.32.24,11.73.24,4.95,0,9.63-.08,14.04-.24Z"/>
    <path class="cls-2" d="M691.22,563.36v-1.95c.22-.14.6-.35,1.14-.65,1.03-.57,1.98-1.16,2.84-1.78.3-3.63.45-9.51.45-17.65v-6.66c0-3.57-.07-8.81-.2-15.7-.08-3.82-.26-6.25-.53-7.31-.08-.24-.19-.43-.32-.57-.22-.22-.56-.38-1.02-.48s-2.16-.35-5.11-.73v-3.29l14.73.24c1.73,0,4.99-.07,9.78-.2,3.47-.08,6.24-.12,8.32-.12,4.79,0,8.62.29,11.51.87,2.88.58,5.39,1.51,7.53,2.8s3.94,2.81,5.42,4.57c1.47,1.76,2.59,3.65,3.35,5.68,1.27,3.41,1.91,7.14,1.91,11.2,0,5.17-.95,9.78-2.84,13.84-1.89,4.06-4.5,7.45-7.81,10.19s-6.91,4.7-10.77,5.91c-3.87,1.2-8.54,1.8-14,1.8l-12.05-.24-12.3.24ZM707.45,558.4c2.52.38,4.93.57,7.22.57,3.6,0,6.79-.38,9.58-1.14,2.06-.57,3.86-1.39,5.4-2.48,1.54-1.08,3.02-2.68,4.44-4.79,1.42-2.11,2.53-4.63,3.31-7.55.78-2.93,1.18-6.08,1.18-9.46,0-3.09-.39-6.07-1.18-8.95-.78-2.88-2.07-5.4-3.86-7.57-1.78-2.17-4.04-3.73-6.78-4.71-2.73-.98-6.87-1.46-12.42-1.46-2.08,0-4.38.18-6.9.52-.27,3.84-.4,11.08-.4,21.71v9.34c0,8.06.14,13.38.4,15.95Z"/>
    <path class="cls-2" d="M760.13,563.36v-2.19c1.62-.76,2.95-1.54,3.98-2.35.16-1.14.3-2.97.4-5.52.22-4.65.32-8.04.32-10.15v-18.26c0-.7-.04-3.34-.12-7.91-.08-3.06-.27-4.93-.57-5.6-.14-.27-.34-.47-.61-.61-.73-.32-2.68-.57-5.84-.73v-3.45l9.41.2c1.87.03,3.65.04,5.36.04,3.71,0,7.83-.04,12.38-.12l8.24-.2c.97,0,2.95.05,5.92.16.27,0,.72.08,1.34.24l.28.53-.77,5.84c-.02.4-.16,2.35-.4,5.84h-3.17c-.06-3.19-.18-5.15-.36-5.88-.11-.38-.27-.65-.49-.81-.35-.24-1.43-.46-3.25-.65-2.68-.3-5.3-.45-7.87-.45-2.41,0-4.87.1-7.39.28-.38,3.06-.57,6.94-.57,11.65v8.32c1.84.14,3.76.2,5.76.2.62,0,2.87-.06,6.74-.16,1.46-.02,2.32-.12,2.58-.28.26-.16.45-.44.59-.85.32-1.03.52-2.75.57-5.15h3.29l-.16,8.92.16,8.89h-3.49c.02-3.14-.18-5.07-.61-5.8-.32-.54-.9-.88-1.74-1.02-1.87-.3-4.26-.44-7.18-.44-2.63,0-4.79.08-6.5.24v17.21c0,1.92.04,3.57.12,4.95,2.19.16,4.79.24,7.79.24s5.62-.1,8.1-.28c2.47-.19,3.99-.46,4.56-.81.19-.11.37-.35.53-.73.49-1.3,1-3.76,1.54-7.39h3.33c-.6,5.36-.89,9.77-.89,13.23l-.53.53c-1.73.19-4.19.28-7.38.28l-6.54-.12c-6.44-.08-10.88-.12-13.31-.12-.65,0-5.17.08-13.56.24Z"/>
    <path class="cls-2" d="M847.75,521.43h-3.41c-.06-3.14-.19-5.35-.41-6.66-.84-1.19-2.29-2.25-4.36-3.17-2.07-.92-4.39-1.38-6.96-1.38-3.68,0-6.53.93-8.54,2.78-2.02,1.85-3.03,4.03-3.03,6.51.03,1.79.32,3.23.89,4.34.57,1.11,1.38,1.99,2.44,2.64,1.05.65,2.61,1.24,4.67,1.78,1.57.32,3.75.73,6.55,1.22,2.8.49,4.62.82,5.46,1.01,2.19.57,3.97,1.25,5.32,2.05,1.35.8,2.43,1.72,3.23,2.76.8,1.04,1.45,2.35,1.97,3.94.51,1.58.77,3.36.77,5.33,0,3.46-.72,6.51-2.15,9.13-1.08,1.97-2.59,3.78-4.51,5.41s-3.89,2.86-5.92,3.67c-3.25,1.3-7.14,1.95-11.69,1.95-3.33,0-6.29-.31-8.88-.94-2.6-.62-5.45-1.69-8.56-3.21.84-3.08,1.27-7.78,1.3-14.08h3.41c-.05,1.95.1,4.37.45,7.26,1.03,1.68,2.79,3.15,5.27,4.42,2.49,1.27,5.21,1.91,8.16,1.91,2.57,0,4.86-.45,6.88-1.36,2.02-.9,3.48-2.16,4.38-3.75.91-1.6,1.36-3.41,1.36-5.44,0-1.7-.32-3.17-.95-4.38-.64-1.22-1.63-2.19-2.99-2.92-1.35-.73-3.73-1.49-7.14-2.27-4.9-1.03-8.12-1.77-9.66-2.23-2.33-.7-4.2-1.72-5.62-3.05-1.42-1.32-2.48-2.93-3.19-4.81-.7-1.88-1.06-3.9-1.06-6.07,0-3.03.64-5.82,1.91-8.38,1.27-2.56,2.95-4.54,5.03-5.95,2.09-1.4,4.44-2.41,7.06-3.02,2.62-.61,5.31-.92,8.08-.92s5.65.26,8.34.77c2.69.52,5.03,1.26,7,2.23l.33.97c-.38,1.76-.66,3.49-.83,5.17-.18,1.69-.3,3.92-.39,6.68Z"/>
    <path class="cls-2" d="M919.29,521.43h-3.41c-.06-3.14-.19-5.35-.41-6.66-.84-1.19-2.29-2.25-4.36-3.17-2.07-.92-4.39-1.38-6.96-1.38-3.68,0-6.53.93-8.54,2.78-2.02,1.85-3.03,4.03-3.03,6.51.03,1.79.32,3.23.89,4.34.57,1.11,1.38,1.99,2.44,2.64,1.05.65,2.61,1.24,4.67,1.78,1.57.32,3.75.73,6.55,1.22,2.8.49,4.62.82,5.46,1.01,2.19.57,3.97,1.25,5.32,2.05,1.35.8,2.43,1.72,3.23,2.76.8,1.04,1.45,2.35,1.97,3.94.51,1.58.77,3.36.77,5.33,0,3.46-.72,6.51-2.15,9.13-1.08,1.97-2.59,3.78-4.51,5.41s-3.89,2.86-5.92,3.67c-3.25,1.3-7.14,1.95-11.69,1.95-3.33,0-6.29-.31-8.88-.94-2.6-.62-5.45-1.69-8.56-3.21.84-3.08,1.27-7.78,1.3-14.08h3.41c-.05,1.95.1,4.37.45,7.26,1.03,1.68,2.79,3.15,5.27,4.42,2.49,1.27,5.21,1.91,8.16,1.91,2.57,0,4.86-.45,6.88-1.36,2.02-.9,3.48-2.16,4.38-3.75.91-1.6,1.36-3.41,1.36-5.44,0-1.7-.32-3.17-.95-4.38-.64-1.22-1.63-2.19-2.99-2.92-1.35-.73-3.73-1.49-7.14-2.27-4.9-1.03-8.12-1.77-9.66-2.23-2.33-.7-4.2-1.72-5.62-3.05-1.42-1.32-2.48-2.93-3.19-4.81-.7-1.88-1.06-3.9-1.06-6.07,0-3.03.64-5.82,1.91-8.38,1.27-2.56,2.95-4.54,5.03-5.95,2.09-1.4,4.44-2.41,7.06-3.02,2.62-.61,5.31-.92,8.08-.92s5.65.26,8.34.77c2.69.52,5.03,1.26,7,2.23l.33.97c-.38,1.76-.66,3.49-.83,5.17-.18,1.69-.3,3.92-.39,6.68Z"/>
    <path class="cls-2" d="M986.13,556.01l-1.87,4.1c-3.38,1.78-6.42,3.01-9.11,3.67-2.69.66-6.06,1-10.09,1-5.74,0-10.81-.91-15.22-2.72-3.47-1.46-6.4-3.39-8.81-5.8s-4.26-5.02-5.56-7.83c-1.97-4.25-2.96-8.86-2.96-13.84,0-8.52,2.91-15.48,8.74-20.88,5.83-5.39,14.06-8.1,24.69-8.1,3.65,0,6.93.27,9.84.81,2.91.54,6.28,1.5,10.13,2.88l.2.53c-.43,1.27-.77,2.87-1.02,4.79-.4,3.06-.66,5.88-.77,8.48h-3.17c-.06-2.98-.19-5.36-.41-7.14-1.81-1.89-3.85-3.31-6.11-4.24-2.26-.94-5.15-1.4-8.66-1.4-6.36,0-11.44,2.01-15.26,6.02-3.81,4.02-5.72,9.63-5.72,16.83,0,4.35.64,8.16,1.93,11.4,1.28,3.25,2.99,5.93,5.13,8.06,2.14,2.12,4.29,3.67,6.46,4.65,2.95,1.3,6.52,1.95,10.71,1.95,2.76,0,5.37-.31,7.83-.93,2.46-.62,5.14-1.69,8.03-3.21l1.02.93Z"/>
    <path class="cls-2" d="M1017.96,506.58v3.57c-2.73.08-4.36.18-4.87.3-.52.12-.88.27-1.1.45s-.36.4-.45.67c-.19.46-.32,1.34-.4,2.64-.06.7-.1,2.03-.12,3.98-.11,6.66-.16,10.24-.16,10.75v16.35l.12,7.43c0,2.79.14,4.6.41,5.44.11.38.29.67.55.87.26.2.66.36,1.22.49.55.12,2.16.21,4.81.26v3.57c-4.41-.16-9.12-.24-14.12-.24-4.36,0-8.24.08-11.65.24v-3.57c2.81-.11,4.43-.2,4.87-.28.57-.1.96-.26,1.16-.44.2-.19.33-.4.39-.65.08-.32.19-1.6.32-3.82.22-3.25.32-6.25.32-9.01v-16.96c0-5.38-.03-8.85-.08-10.39-.14-3.43-.3-5.59-.49-6.45-.08-.35-.21-.62-.38-.81s-.5-.34-.98-.47c-.47-.12-2.19-.24-5.13-.34v-3.57c3.41.16,7.32.24,11.73.24,4.95,0,9.63-.08,14.04-.24Z"/>
    <path class="cls-2" d="M1025.58,563.36v-2.19c1.62-.76,2.95-1.54,3.98-2.35.16-1.14.3-2.97.4-5.52.22-4.65.32-8.04.32-10.15v-18.26c0-.7-.04-3.34-.12-7.91-.08-3.06-.27-4.93-.57-5.6-.14-.27-.34-.47-.61-.61-.73-.32-2.68-.57-5.84-.73v-3.45l9.41.2c1.87.03,3.65.04,5.36.04,3.71,0,7.83-.04,12.38-.12l8.24-.2c.97,0,2.95.05,5.92.16.27,0,.72.08,1.34.24l.28.53-.77,5.84c-.02.4-.16,2.35-.4,5.84h-3.17c-.06-3.19-.18-5.15-.36-5.88-.11-.38-.27-.65-.49-.81-.35-.24-1.43-.46-3.25-.65-2.68-.3-5.3-.45-7.87-.45-2.41,0-4.87.1-7.39.28-.38,3.06-.57,6.94-.57,11.65v8.32c1.84.14,3.76.2,5.76.2.62,0,2.87-.06,6.74-.16,1.46-.02,2.32-.12,2.58-.28.26-.16.45-.44.59-.85.32-1.03.52-2.75.57-5.15h3.29l-.16,8.92.16,8.89h-3.49c.02-3.14-.18-5.07-.61-5.8-.32-.54-.9-.88-1.74-1.02-1.87-.3-4.26-.44-7.18-.44-2.63,0-4.79.08-6.5.24v17.21c0,1.92.04,3.57.12,4.95,2.19.16,4.79.24,7.79.24s5.62-.1,8.1-.28c2.47-.19,3.99-.46,4.56-.81.19-.11.37-.35.53-.73.49-1.3,1-3.76,1.54-7.39h3.33c-.6,5.36-.89,9.77-.89,13.23l-.53.53c-1.73.19-4.19.28-7.38.28l-6.54-.12c-6.44-.08-10.88-.12-13.31-.12-.65,0-5.17.08-13.56.24Z"/>
    <path class="cls-2" d="M1074.56,559.91c3.19-.16,5.02-.31,5.48-.45.3-.11.55-.28.75-.53.2-.24.37-.74.5-1.5.16-1.03.35-3.51.57-7.46.11-2.25.16-5.17.16-8.77v-13.03l-.16-11.81c-.03-1.98-.11-3.26-.24-3.86-.13-.59-.33-1.03-.59-1.32-.26-.28-.68-.51-1.28-.67-.6-.16-2.33-.34-5.19-.52v-3.41c3.43.16,5.97.24,7.59.24l5.89-.12,3.73-.12c5.58,7.28,12.33,15.66,20.25,25.16,5.71,6.84,10.45,12.2,14.2,16.07v-9.37c0-14.56-.16-23.12-.48-25.69-.11-1-.35-1.65-.73-1.95-.62-.48-2.73-.76-6.33-.81v-3.41c3.3.16,6.33.24,9.09.24s6.13-.08,10.35-.24v3.41c-3.3.08-5.26.32-5.88.73-.22.14-.36.34-.44.61-.41,1.35-.67,4.45-.79,9.27-.12,4.83-.18,8.4-.18,10.69,0,17.99.18,28.91.53,32.75l-.53.36c-2.27-.38-4.59-.73-6.94-1.05-8.74-9.77-21.13-24.43-37.17-43.99v20.21c0,4.19.08,8.56.24,13.11.11,3.14.27,5.05.48,5.72.11.32.29.59.55.79.26.2.71.35,1.36.43,1.76.22,3.05.32,3.85.32.16,0,.43-.01.81-.04v3.29c-5.14-.05-8.06-.08-8.76-.08-2.63,0-6.18.08-10.67.24v-3.45Z"/>
    <path class="cls-2" d="M1198.5,556.01l-1.87,4.1c-3.38,1.78-6.42,3.01-9.11,3.67-2.69.66-6.06,1-10.09,1-5.74,0-10.81-.91-15.22-2.72-3.47-1.46-6.4-3.39-8.81-5.8-2.41-2.41-4.26-5.02-5.56-7.83-1.97-4.25-2.96-8.86-2.96-13.84,0-8.52,2.91-15.48,8.74-20.88,5.83-5.39,14.06-8.1,24.69-8.1,3.65,0,6.93.27,9.84.81,2.91.54,6.28,1.5,10.13,2.88l.2.53c-.43,1.27-.77,2.87-1.02,4.79-.4,3.06-.66,5.88-.77,8.48h-3.17c-.06-2.98-.19-5.36-.41-7.14-1.81-1.89-3.85-3.31-6.11-4.24-2.26-.94-5.15-1.4-8.66-1.4-6.36,0-11.44,2.01-15.26,6.02-3.81,4.02-5.72,9.63-5.72,16.83,0,4.35.64,8.16,1.93,11.4,1.28,3.25,2.99,5.93,5.13,8.06,2.14,2.12,4.29,3.67,6.46,4.65,2.95,1.3,6.52,1.95,10.71,1.95,2.76,0,5.37-.31,7.83-.93,2.46-.62,5.14-1.69,8.03-3.21l1.02.93Z"/>
    <path class="cls-2" d="M1205.61,563.36v-2.19c1.62-.76,2.95-1.54,3.98-2.35.16-1.14.3-2.97.4-5.52.22-4.65.32-8.04.32-10.15v-18.26c0-.7-.04-3.34-.12-7.91-.08-3.06-.27-4.93-.57-5.6-.14-.27-.34-.47-.61-.61-.73-.32-2.68-.57-5.84-.73v-3.45l9.41.2c1.87.03,3.65.04,5.36.04,3.71,0,7.83-.04,12.38-.12l8.24-.2c.97,0,2.95.05,5.92.16.27,0,.72.08,1.34.24l.28.53-.77,5.84c-.02.4-.16,2.35-.4,5.84h-3.17c-.06-3.19-.18-5.15-.36-5.88-.11-.38-.27-.65-.49-.81-.35-.24-1.43-.46-3.25-.65-2.68-.3-5.3-.45-7.87-.45-2.41,0-4.87.1-7.39.28-.38,3.06-.57,6.94-.57,11.65v8.32c1.84.14,3.76.2,5.76.2.62,0,2.87-.06,6.74-.16,1.46-.02,2.32-.12,2.58-.28.26-.16.45-.44.59-.85.32-1.03.52-2.75.57-5.15h3.29l-.16,8.92.16,8.89h-3.49c.02-3.14-.18-5.07-.61-5.8-.32-.54-.9-.88-1.74-1.02-1.87-.3-4.26-.44-7.18-.44-2.63,0-4.79.08-6.5.24v17.21c0,1.92.04,3.57.12,4.95,2.19.16,4.79.24,7.79.24s5.62-.1,8.1-.28c2.47-.19,3.99-.46,4.56-.81.19-.11.37-.35.53-.73.49-1.3,1-3.76,1.54-7.39h3.33c-.6,5.36-.89,9.77-.89,13.23l-.53.53c-1.73.19-4.19.28-7.38.28l-6.54-.12c-6.44-.08-10.88-.12-13.31-.12-.65,0-5.17.08-13.56.24Z"/>
    <path class="cls-2" d="M1293.22,521.43h-3.41c-.06-3.14-.19-5.35-.41-6.66-.84-1.19-2.29-2.25-4.36-3.17-2.07-.92-4.39-1.38-6.96-1.38-3.68,0-6.53.93-8.54,2.78-2.02,1.85-3.03,4.03-3.03,6.51.03,1.79.32,3.23.89,4.34.57,1.11,1.38,1.99,2.44,2.64,1.05.65,2.61,1.24,4.67,1.78,1.57.32,3.75.73,6.55,1.22,2.8.49,4.62.82,5.46,1.01,2.19.57,3.97,1.25,5.32,2.05,1.35.8,2.43,1.72,3.23,2.76.8,1.04,1.45,2.35,1.97,3.94.51,1.58.77,3.36.77,5.33,0,3.46-.72,6.51-2.15,9.13-1.08,1.97-2.59,3.78-4.51,5.41-1.92,1.64-3.89,2.86-5.92,3.67-3.25,1.3-7.14,1.95-11.69,1.95-3.33,0-6.29-.31-8.88-.94-2.6-.62-5.45-1.69-8.56-3.21.84-3.08,1.27-7.78,1.3-14.08h3.41c-.05,1.95.1,4.37.45,7.26,1.03,1.68,2.79,3.15,5.27,4.42s5.21,1.91,8.16,1.91c2.57,0,4.86-.45,6.88-1.36,2.02-.9,3.48-2.16,4.38-3.75.91-1.6,1.36-3.41,1.36-5.44,0-1.7-.32-3.17-.95-4.38-.64-1.22-1.63-2.19-2.99-2.92-1.35-.73-3.73-1.49-7.14-2.27-4.9-1.03-8.12-1.77-9.66-2.23-2.33-.7-4.2-1.72-5.62-3.05-1.42-1.32-2.48-2.93-3.19-4.81-.7-1.88-1.06-3.9-1.06-6.07,0-3.03.64-5.82,1.91-8.38,1.27-2.56,2.95-4.54,5.03-5.95,2.09-1.4,4.44-2.41,7.06-3.02,2.62-.61,5.31-.92,8.08-.92s5.65.26,8.34.77c2.69.52,5.03,1.26,7,2.23l.33.97c-.38,1.76-.66,3.49-.83,5.17-.18,1.69-.3,3.92-.39,6.68Z"/>
    <path class="cls-2" d="M1327.92,563.36v-2.19c1.62-.76,2.95-1.54,3.98-2.35.16-1.14.3-2.97.4-5.52.22-4.65.32-8.04.32-10.15v-18.26c0-.7-.04-3.34-.12-7.91-.08-3.06-.27-4.93-.57-5.6-.14-.27-.34-.47-.61-.61-.73-.32-2.68-.57-5.84-.73v-3.45l9.41.2c1.87.03,3.65.04,5.36.04,3.71,0,7.83-.04,12.38-.12l8.24-.2c.97,0,2.95.05,5.92.16.27,0,.72.08,1.34.24l.28.53-.77,5.84c-.02.4-.16,2.35-.4,5.84h-3.17c-.06-3.19-.18-5.15-.36-5.88-.11-.38-.27-.65-.49-.81-.35-.24-1.43-.46-3.25-.65-2.68-.3-5.3-.45-7.87-.45-2.41,0-4.87.1-7.39.28-.38,3.06-.57,6.94-.57,11.65v8.32c1.84.14,3.76.2,5.76.2.62,0,2.87-.06,6.74-.16,1.46-.02,2.32-.12,2.58-.28.26-.16.45-.44.59-.85.32-1.03.52-2.75.57-5.15h3.29l-.16,8.92.16,8.89h-3.49c.02-3.14-.18-5.07-.61-5.8-.32-.54-.9-.88-1.74-1.02-1.87-.3-4.26-.44-7.18-.44-2.63,0-4.79.08-6.5.24v17.21c0,1.92.04,3.57.12,4.95,2.19.16,4.79.24,7.79.24s5.62-.1,8.1-.28c2.47-.19,3.99-.46,4.56-.81.19-.11.37-.35.53-.73.49-1.3,1-3.76,1.54-7.39h3.33c-.6,5.36-.89,9.77-.89,13.23l-.53.53c-1.73.19-4.19.28-7.38.28l-6.54-.12c-6.44-.08-10.88-.12-13.31-.12-.65,0-5.17.08-13.56.24Z"/>
    <path class="cls-2" d="M1388.3,563.36v-3.33c3.25-.11,5.17-.32,5.78-.65s1.02-.86,1.24-1.62c.3-1.16.44-4.67.44-10.51v-24.31c0-6.63-.04-10.33-.12-11.12h-5.8c-2.92,0-5.49.1-7.71.28-.89.08-1.4.19-1.54.32-.19.16-.35.64-.49,1.42-.35,1.89-.56,4.02-.61,6.37h-3.37c-.11-5.55-.18-8.67-.2-9.38-.08-1.19-.22-2.47-.41-3.85l.37-.4c1.27.14,2.62.23,4.06.28,2.33.08,6.8.12,13.43.12h16.4c6.82,0,11.37-.04,13.68-.12,1.24-.06,2.5-.15,3.77-.28l.4.4c-.24,1.65-.39,3.1-.44,4.34-.03.22-.08,3.18-.16,8.89h-3.37c-.05-2.11-.23-4.13-.52-6.05-.16-.97-.34-1.56-.53-1.74-.16-.14-.6-.23-1.3-.28-2.22-.22-4.88-.32-7.99-.32h-5.8c-.08.95-.12,4.65-.12,11.12v24.31c0,5.84.15,9.36.45,10.55.19.7.59,1.22,1.22,1.56.62.34,2.56.56,5.8.67v3.33c-5.25-.24-9.67-.37-13.27-.37-3.84,0-8.26.12-13.27.37Z"/>
    <path class="cls-2" d="M1455.23,563.36v-1.95c.22-.14.6-.35,1.14-.65,1.03-.57,1.98-1.16,2.84-1.78.3-3.63.45-9.51.45-17.65v-6.66c0-3.57-.07-8.81-.2-15.7-.08-3.82-.26-6.25-.53-7.31-.08-.24-.19-.43-.32-.57-.22-.22-.56-.38-1.02-.48s-2.16-.35-5.11-.73v-3.29l14.73.24c1.73,0,4.99-.07,9.78-.2,3.47-.08,6.24-.12,8.32-.12,4.79,0,8.62.29,11.51.87,2.88.58,5.39,1.51,7.53,2.8,2.14,1.28,3.94,2.81,5.42,4.57,1.47,1.76,2.59,3.65,3.35,5.68,1.27,3.41,1.91,7.14,1.91,11.2,0,5.17-.95,9.78-2.84,13.84-1.89,4.06-4.5,7.45-7.81,10.19-3.31,2.73-6.91,4.7-10.77,5.91-3.87,1.2-8.54,1.8-14,1.8l-12.05-.24-12.3.24ZM1471.46,558.4c2.52.38,4.93.57,7.22.57,3.6,0,6.79-.38,9.58-1.14,2.06-.57,3.86-1.39,5.4-2.48,1.54-1.08,3.02-2.68,4.44-4.79,1.42-2.11,2.53-4.63,3.31-7.55.78-2.93,1.18-6.08,1.18-9.46,0-3.09-.39-6.07-1.18-8.95-.78-2.88-2.07-5.4-3.86-7.57-1.78-2.17-4.04-3.73-6.78-4.71-2.73-.98-6.87-1.46-12.42-1.46-2.08,0-4.38.18-6.9.52-.27,3.84-.4,11.08-.4,21.71v9.34c0,8.06.14,13.38.4,15.95Z"/>
    <path class="cls-2" d="M1524.13,563.36v-2.19c1.62-.76,2.95-1.54,3.98-2.35.16-1.14.3-2.97.4-5.52.22-4.65.32-8.04.32-10.15v-18.26c0-.7-.04-3.34-.12-7.91-.08-3.06-.27-4.93-.57-5.6-.14-.27-.34-.47-.61-.61-.73-.32-2.68-.57-5.84-.73v-3.45l9.41.2c1.87.03,3.65.04,5.36.04,3.71,0,7.83-.04,12.38-.12l8.24-.2c.97,0,2.95.05,5.92.16.27,0,.72.08,1.34.24l.28.53-.77,5.84c-.02.4-.16,2.35-.4,5.84h-3.17c-.06-3.19-.18-5.15-.36-5.88-.11-.38-.27-.65-.49-.81-.35-.24-1.43-.46-3.25-.65-2.68-.3-5.3-.45-7.87-.45-2.41,0-4.87.1-7.39.28-.38,3.06-.57,6.94-.57,11.65v8.32c1.84.14,3.76.2,5.76.2.62,0,2.87-.06,6.74-.16,1.46-.02,2.32-.12,2.58-.28.26-.16.45-.44.59-.85.32-1.03.52-2.75.57-5.15h3.29l-.16,8.92.16,8.89h-3.49c.02-3.14-.18-5.07-.61-5.8-.32-.54-.9-.88-1.74-1.02-1.87-.3-4.26-.44-7.18-.44-2.63,0-4.79.08-6.5.24v17.21c0,1.92.04,3.57.12,4.95,2.19.16,4.79.24,7.79.24s5.62-.1,8.1-.28c2.47-.19,3.99-.46,4.56-.81.19-.11.37-.35.53-.73.49-1.3,1-3.76,1.54-7.39h3.33c-.6,5.36-.89,9.77-.89,13.23l-.53.53c-1.73.19-4.19.28-7.38.28l-6.54-.12c-6.44-.08-10.88-.12-13.31-.12-.65,0-5.17.08-13.56.24Z"/>
    <path class="cls-2" d="M1596.25,563.36v-2.07c.7-.3,1.69-.83,2.96-1.58.57-.32.94-.59,1.1-.81.11-.13.18-.28.2-.44.14-.68.26-3.09.36-7.24.11-4.15.16-9.14.16-14.96,0-8.55-.03-13.82-.08-15.82-.11-5.09-.28-8-.52-8.73-.11-.32-.31-.57-.61-.73-.62-.4-2.69-.68-6.21-.81v-3.57c3.44.16,7.36.24,11.77.24,4.92,0,9.59-.08,14-.24v3.57c-3.06.14-4.92.38-5.6.73-.3.16-.52.42-.65.79-.13.37-.26,2.04-.38,5.01-.12,2.97-.18,6.74-.18,11.28,0,.48.01,4.39.04,11.73.02,3.87.04,7.7.06,11.51.01,3.8.03,6.11.06,6.92,3.73.16,6.28.24,7.63.24,4.11,0,7.7-.24,10.76-.73,1.11-.16,1.77-.34,1.99-.53.22-.19.45-.69.69-1.5.54-2.06,1.07-4.41,1.58-7.06h3.37c-.08.76-.12,1.2-.12,1.34l-1.01,8.2c-.22,2.57-.34,4.11-.36,4.63-.78.22-1.57.36-2.35.44-1.65.14-4.21.2-7.67.2-.49,0-3.67-.07-9.54-.2-4.46-.11-7.58-.16-9.33-.16-2.65,0-6.68.12-12.09.37Z"/>
    <path class="cls-2" d="M1643.45,563.36v-3.37c2.19-.16,3.49-.3,3.91-.42.42-.12.78-.31,1.08-.57s.6-.66.91-1.22c.31-.55,1.24-2.62,2.78-6.19.7-1.68,2.05-4.99,4.06-9.94l10.59-26.13,3.57-9.21h5.76l18.14,42.37,2.52,5.56,1.62,3.73c.27.49.52.84.77,1.06s.52.38.83.48c.31.11,1.1.2,2.37.28.41.06,1,.12,1.78.2v3.37l-11.28-.24-14.24.24v-3.37c3.27-.14,5.12-.32,5.54-.55.42-.23.63-.61.63-1.16,0-.68-.31-1.78-.94-3.33l-3.49-8.93h-20.86l-1.78,4.87c-1.35,3.73-2.03,6.06-2.03,6.98,0,.65.22,1.11.65,1.38.65.38,2.59.62,5.8.73v3.37l-9.37-.24-9.33.24ZM1661.39,541.4c2.54.08,5.42.12,8.64.12s5.9-.04,8.36-.12l-8.68-20.94-8.32,20.94Z"/>
    <path class="cls-2" d="M1767.26,521.43h-3.41c-.06-3.14-.19-5.35-.41-6.66-.84-1.19-2.29-2.25-4.36-3.17-2.07-.92-4.39-1.38-6.96-1.38-3.68,0-6.53.93-8.54,2.78-2.02,1.85-3.03,4.03-3.03,6.51.03,1.79.32,3.23.89,4.34.57,1.11,1.38,1.99,2.44,2.64,1.05.65,2.61,1.24,4.67,1.78,1.57.32,3.75.73,6.55,1.22,2.8.49,4.62.82,5.46,1.01,2.19.57,3.97,1.25,5.32,2.05,1.35.8,2.43,1.72,3.23,2.76.8,1.04,1.45,2.35,1.97,3.94.51,1.58.77,3.36.77,5.33,0,3.46-.72,6.51-2.15,9.13-1.08,1.97-2.59,3.78-4.51,5.41s-3.89,2.86-5.92,3.67c-3.25,1.3-7.14,1.95-11.69,1.95-3.33,0-6.29-.31-8.88-.94-2.6-.62-5.45-1.69-8.56-3.21.84-3.08,1.27-7.78,1.3-14.08h3.41c-.05,1.95.1,4.37.45,7.26,1.03,1.68,2.79,3.15,5.27,4.42,2.49,1.27,5.21,1.91,8.16,1.91,2.57,0,4.86-.45,6.88-1.36,2.02-.9,3.48-2.16,4.38-3.75.91-1.6,1.36-3.41,1.36-5.44,0-1.7-.32-3.17-.95-4.38-.64-1.22-1.63-2.19-2.99-2.92-1.35-.73-3.73-1.49-7.14-2.27-4.9-1.03-8.12-1.77-9.66-2.23-2.33-.7-4.2-1.72-5.62-3.05-1.42-1.32-2.48-2.93-3.19-4.81-.7-1.88-1.06-3.9-1.06-6.07,0-3.03.64-5.82,1.91-8.38,1.27-2.56,2.95-4.54,5.03-5.95,2.09-1.4,4.44-2.41,7.06-3.02,2.62-.61,5.31-.92,8.08-.92s5.65.26,8.34.77c2.69.52,5.03,1.26,7,2.23l.33.97c-.38,1.76-.66,3.49-.83,5.17-.18,1.69-.3,3.92-.39,6.68Z"/>
    <path class="cls-2" d="M1778.18,563.36v-3.37c2.19-.16,3.49-.3,3.91-.42.42-.12.78-.31,1.08-.57s.6-.66.91-1.22c.31-.55,1.24-2.62,2.78-6.19.7-1.68,2.05-4.99,4.06-9.94l10.59-26.13,3.57-9.21h5.76l18.14,42.37,2.52,5.56,1.62,3.73c.27.49.52.84.77,1.06s.52.38.83.48c.31.11,1.1.2,2.37.28.41.06,1,.12,1.78.2v3.37l-11.28-.24-14.24.24v-3.37c3.27-.14,5.12-.32,5.54-.55.42-.23.63-.61.63-1.16,0-.68-.31-1.78-.94-3.33l-3.49-8.93h-20.86l-1.78,4.87c-1.35,3.73-2.03,6.06-2.03,6.98,0,.65.22,1.11.65,1.38.65.38,2.59.62,5.8.73v3.37l-9.37-.24-9.33.24ZM1796.12,541.4c2.54.08,5.42.12,8.64.12s5.9-.04,8.36-.12l-8.68-20.94-8.32,20.94Z"/>
    <path class="cls-2" d="M1844.04,559.91c3.19-.16,5.02-.31,5.48-.45.3-.11.55-.28.75-.53.2-.24.37-.74.5-1.5.16-1.03.35-3.51.57-7.46.11-2.25.16-5.17.16-8.77v-13.03l-.16-11.81c-.03-1.98-.11-3.26-.24-3.86-.13-.59-.33-1.03-.59-1.32-.26-.28-.68-.51-1.28-.67-.6-.16-2.33-.34-5.19-.52v-3.41c3.43.16,5.97.24,7.59.24l5.89-.12,3.73-.12c5.58,7.28,12.33,15.66,20.25,25.16,5.71,6.84,10.45,12.2,14.2,16.07v-9.37c0-14.56-.16-23.12-.48-25.69-.11-1-.35-1.65-.73-1.95-.62-.48-2.73-.76-6.33-.81v-3.41c3.3.16,6.33.24,9.09.24s6.13-.08,10.35-.24v3.41c-3.3.08-5.26.32-5.88.73-.22.14-.36.34-.44.61-.41,1.35-.67,4.45-.79,9.27-.12,4.83-.18,8.4-.18,10.69,0,17.99.18,28.91.53,32.75l-.53.36c-2.27-.38-4.59-.73-6.94-1.05-8.74-9.77-21.13-24.43-37.17-43.99v20.21c0,4.19.08,8.56.24,13.11.11,3.14.27,5.05.48,5.72.11.32.29.59.55.79.26.2.71.35,1.36.43,1.76.22,3.05.32,3.85.32.16,0,.43-.01.81-.04v3.29c-5.14-.05-8.06-.08-8.76-.08-2.63,0-6.18.08-10.67.24v-3.45Z"/>
    <path class="cls-2" d="M1924.68,563.36v-3.33c3.25-.11,5.17-.32,5.78-.65s1.02-.86,1.24-1.62c.3-1.16.44-4.67.44-10.51v-24.31c0-6.63-.04-10.33-.12-11.12h-5.8c-2.92,0-5.49.1-7.71.28-.89.08-1.4.19-1.54.32-.19.16-.35.64-.49,1.42-.35,1.89-.56,4.02-.61,6.37h-3.37c-.11-5.55-.18-8.67-.2-9.38-.08-1.19-.22-2.47-.41-3.85l.37-.4c1.27.14,2.62.23,4.06.28,2.33.08,6.8.12,13.43.12h16.4c6.82,0,11.37-.04,13.68-.12,1.24-.06,2.5-.15,3.77-.28l.4.4c-.24,1.65-.39,3.1-.44,4.34-.03.22-.08,3.18-.16,8.89h-3.37c-.05-2.11-.23-4.13-.52-6.05-.16-.97-.34-1.56-.53-1.74-.16-.14-.6-.23-1.3-.28-2.22-.22-4.88-.32-7.99-.32h-5.8c-.08.95-.12,4.65-.12,11.12v24.31c0,5.84.15,9.36.45,10.55.19.7.59,1.22,1.22,1.56.62.34,2.56.56,5.8.67v3.33c-5.25-.24-9.67-.37-13.27-.37-3.84,0-8.26.12-13.27.37Z"/>
    <path class="cls-2" d="M1970.5,563.36v-2.19c1.62-.76,2.95-1.54,3.98-2.35.16-1.14.3-2.97.4-5.52.22-4.65.32-8.04.32-10.15v-18.26c0-.7-.04-3.34-.12-7.91-.08-3.06-.27-4.93-.57-5.6-.14-.27-.34-.47-.61-.61-.73-.32-2.68-.57-5.84-.73v-3.45l9.41.2c1.87.03,3.65.04,5.36.04,3.71,0,7.83-.04,12.38-.12l8.24-.2c.97,0,2.95.05,5.92.16.27,0,.72.08,1.34.24l.28.53-.77,5.84c-.02.4-.16,2.35-.4,5.84h-3.17c-.06-3.19-.18-5.15-.36-5.88-.11-.38-.27-.65-.49-.81-.35-.24-1.43-.46-3.25-.65-2.68-.3-5.3-.45-7.87-.45-2.41,0-4.87.1-7.39.28-.38,3.06-.57,6.94-.57,11.65v8.32c1.84.14,3.76.2,5.76.2.62,0,2.87-.06,6.74-.16,1.46-.02,2.32-.12,2.58-.28.26-.16.45-.44.59-.85.32-1.03.52-2.75.57-5.15h3.29l-.16,8.92.16,8.89h-3.49c.02-3.14-.18-5.07-.61-5.8-.32-.54-.9-.88-1.74-1.02-1.87-.3-4.26-.44-7.18-.44-2.63,0-4.79.08-6.5.24v17.21c0,1.92.04,3.57.12,4.95,2.19.16,4.79.24,7.79.24s5.62-.1,8.1-.28c2.47-.19,3.99-.46,4.56-.81.19-.11.37-.35.53-.73.49-1.3,1-3.76,1.54-7.39h3.33c-.6,5.36-.89,9.77-.89,13.23l-.53.53c-1.73.19-4.19.28-7.38.28l-6.54-.12c-6.44-.08-10.88-.12-13.31-.12-.65,0-5.17.08-13.56.24ZM1988.15,502.72h-4.91l9.54-11.56c1.38-1.68,2.48-2.77,3.31-3.27.82-.5,1.76-.75,2.82-.75,1.41,0,2.55.41,3.41,1.24.86.82,1.3,1.82,1.3,2.98,0,.78-.24,1.5-.73,2.15-.78,1-2.15,2.05-4.1,3.17l-10.63,6.04Z"/>
    <g>
      <path class="cls-2" d="M694.51,606.59h5.18v32.67c0,6.8,1.27,11.7,3.81,14.7,2.54,3,6.63,4.49,12.26,4.49,2.94,0,5.45-.39,7.5-1.18,2.06-.79,3.72-1.98,4.99-3.58,1.27-1.6,2.18-3.59,2.74-5.98.56-2.39.84-5.2.84-8.45v-32.67h5.18v34.2c0,7.16-1.76,12.63-5.29,16.41-3.53,3.78-8.85,5.67-15.96,5.67s-12.49-1.93-15.99-5.79-5.25-9.29-5.25-16.3v-34.2Z"/>
      <path class="cls-2" d="M749.19,661.43v-54.83h7.92l17.97,48.36h.15l17.67-48.36h7.84v54.83h-5.18v-48.89h-.15l-17.97,48.89h-4.87l-18.05-48.89h-.15v48.89h-5.18Z"/>
      <path class="cls-2" d="M839.97,620.91c-.56-2.74-1.68-4.94-3.35-6.59-1.68-1.65-3.96-2.48-6.85-2.48-3.3,0-5.9.79-7.81,2.36-1.9,1.57-3.36,3.57-4.38,5.98-1.02,2.41-1.7,5.04-2.06,7.88-.36,2.84-.63,5.53-.84,8.07.76-1.02,1.56-2.03,2.4-3.05.84-1.01,1.79-1.92,2.86-2.7,1.07-.79,2.31-1.42,3.73-1.9,1.42-.48,3.12-.72,5.1-.72,5.43,0,9.63,1.54,12.6,4.61,2.97,3.07,4.46,7.3,4.46,12.68s-1.5,9.7-4.49,12.79c-3,3.1-7.24,4.65-12.72,4.65-2.69,0-5.18-.45-7.46-1.33-2.28-.89-4.26-2.35-5.94-4.38-1.67-2.03-3-4.68-3.96-7.96-.96-3.27-1.45-7.27-1.45-12,0-3.2.28-6.51.84-9.94.56-3.43,1.56-6.56,3.01-9.41,1.45-2.84,3.43-5.18,5.94-7.01,2.51-1.83,5.75-2.74,9.71-2.74,4.26,0,7.82,1.12,10.66,3.35,2.84,2.24,4.52,5.51,5.03,9.82h-5.03ZM828.62,631.88c-1.88,0-3.57.36-5.06,1.07-1.5.71-2.77,1.68-3.81,2.89-1.04,1.22-1.84,2.63-2.4,4.23-.56,1.6-.84,3.31-.84,5.14,0,1.52.22,3.06.65,4.61.43,1.55,1.14,2.96,2.13,4.23.99,1.27,2.25,2.31,3.77,3.12,1.52.81,3.4,1.22,5.64,1.22s4.2-.39,5.75-1.18c1.55-.79,2.8-1.83,3.77-3.12.96-1.29,1.66-2.74,2.09-4.34.43-1.6.65-3.21.65-4.84,0-4.16-1-7.37-3.01-9.63-2.01-2.26-5.12-3.39-9.33-3.39Z"/>
      <path class="cls-2" d="M857.33,645.05c.2,2.44.75,4.51,1.64,6.21.89,1.7,2.03,3.08,3.43,4.15,1.4,1.07,3.01,1.84,4.84,2.32,1.83.48,3.78.72,5.86.72,2.44,0,4.54-.3,6.32-.91s3.22-1.43,4.34-2.48c1.12-1.04,1.94-2.25,2.47-3.62s.8-2.82.8-4.34c0-2.13-.48-3.86-1.45-5.18-.96-1.32-2.22-2.4-3.77-3.24-1.55-.84-3.33-1.51-5.33-2.02-2.01-.51-4.06-1-6.17-1.49-2.11-.48-4.16-1.05-6.17-1.71-2.01-.66-3.78-1.55-5.33-2.67-1.55-1.12-2.81-2.55-3.77-4.3-.96-1.75-1.45-3.97-1.45-6.66,0-1.88.39-3.71,1.18-5.48.79-1.78,1.95-3.35,3.5-4.72,1.55-1.37,3.49-2.46,5.83-3.27,2.33-.81,5.03-1.22,8.07-1.22s5.8.43,8.11,1.29c2.31.86,4.23,2.04,5.75,3.54,1.52,1.5,2.67,3.24,3.43,5.22.76,1.98,1.14,4.09,1.14,6.32h-4.95c0-2.08-.37-3.88-1.1-5.41-.74-1.52-1.74-2.77-3.01-3.73-1.27-.96-2.72-1.68-4.34-2.13-1.63-.46-3.3-.69-5.03-.69-2.64,0-4.86.37-6.66,1.1-1.8.74-3.24,1.69-4.3,2.86s-1.8,2.46-2.21,3.88c-.41,1.42-.48,2.84-.23,4.26.3,1.78,1.02,3.2,2.13,4.26,1.12,1.07,2.49,1.94,4.11,2.63,1.62.69,3.41,1.25,5.37,1.68,1.95.43,3.95.89,5.98,1.37,2.03.48,4,1.05,5.9,1.71,1.9.66,3.59,1.55,5.06,2.67,1.47,1.12,2.65,2.55,3.54,4.3.89,1.75,1.33,3.95,1.33,6.59,0,5.08-1.75,9.01-5.25,11.8-3.5,2.79-8.43,4.19-14.77,4.19-2.84,0-5.48-.37-7.92-1.1-2.44-.74-4.54-1.85-6.32-3.35-1.78-1.5-3.16-3.35-4.15-5.56-.99-2.21-1.49-4.81-1.49-7.81h5.03Z"/>
      <path class="cls-2" d="M903.87,645.05c.2,2.44.75,4.51,1.64,6.21.89,1.7,2.03,3.08,3.43,4.15,1.4,1.07,3.01,1.84,4.84,2.32,1.83.48,3.78.72,5.86.72,2.44,0,4.54-.3,6.32-.91s3.22-1.43,4.34-2.48c1.12-1.04,1.94-2.25,2.47-3.62s.8-2.82.8-4.34c0-2.13-.48-3.86-1.45-5.18-.96-1.32-2.22-2.4-3.77-3.24-1.55-.84-3.33-1.51-5.33-2.02-2.01-.51-4.06-1-6.17-1.49-2.11-.48-4.16-1.05-6.17-1.71-2.01-.66-3.78-1.55-5.33-2.67-1.55-1.12-2.81-2.55-3.77-4.3-.96-1.75-1.45-3.97-1.45-6.66,0-1.88.39-3.71,1.18-5.48.79-1.78,1.95-3.35,3.5-4.72,1.55-1.37,3.49-2.46,5.83-3.27,2.33-.81,5.03-1.22,8.07-1.22s5.8.43,8.11,1.29c2.31.86,4.23,2.04,5.75,3.54,1.52,1.5,2.67,3.24,3.43,5.22.76,1.98,1.14,4.09,1.14,6.32h-4.95c0-2.08-.37-3.88-1.1-5.41-.74-1.52-1.74-2.77-3.01-3.73-1.27-.96-2.72-1.68-4.34-2.13-1.63-.46-3.3-.69-5.03-.69-2.64,0-4.86.37-6.66,1.1-1.8.74-3.24,1.69-4.3,2.86s-1.8,2.46-2.21,3.88c-.41,1.42-.48,2.84-.23,4.26.3,1.78,1.02,3.2,2.13,4.26,1.12,1.07,2.49,1.94,4.11,2.63,1.62.69,3.41,1.25,5.37,1.68,1.95.43,3.95.89,5.98,1.37,2.03.48,4,1.05,5.9,1.71,1.9.66,3.59,1.55,5.06,2.67,1.47,1.12,2.65,2.55,3.54,4.3.89,1.75,1.33,3.95,1.33,6.59,0,5.08-1.75,9.01-5.25,11.8-3.5,2.79-8.43,4.19-14.77,4.19-2.84,0-5.48-.37-7.92-1.1-2.44-.74-4.54-1.85-6.32-3.35-1.78-1.5-3.16-3.35-4.15-5.56-.99-2.21-1.49-4.81-1.49-7.81h5.03Z"/>
    </g>
  </g>
  <g>
    <path class="cls-3" d="M559.85,666.39c-2.96-.97-10.64-2.84-17.61,1.01-33.14,23.41-69.32,38.59-104.67,41.84-26.14,2.4-49.15-1.95-68.22-11.77l23.38,11.28,7.28,3.22c17.77,7.69,38.63,10.92,61.95,8.76,35.43-3.27,71.68-18.47,104.91-41.95,7.75-7.14-6.86-12.36-7.02-12.4"/>
    <path class="cls-3" d="M406.93,613.45c-2.49-1.51-8.91-4.77-14.81-2.33-21.21,12.45-43.35,20.41-65.12,22.56-34.99,3.44-63.19-8.76-81.72-31.84,5.49,6.35,12.74,14.83,18.57,21.03l.94.99c19.21,19.94,46.52,30.11,79.66,26.86,22.71-2.22,45.84-10.53,67.96-23.53,5.92-4.9-2.19-11.72-5.49-13.73"/>
    <path class="cls-3" d="M584.86,578.38c-2.96-.92-10.5-2.46-16.15,3.11-45.36,58.25-108.78,100-169.7,105.61-30.45,2.82-56.58-3.74-77.02-17.59l18.36,11.74,9.42,5.56c19.72,11.35,44.03,16.53,71.93,13.95,61.87-5.7,126.26-48.08,172.32-107.22,5.76-10.02-9-15.12-9.16-15.16"/>
    <path class="cls-3" d="M547.54,715.14c-2.94-.79-10.55-2.39-17.86-.14-17.39,6.96-35.02,11.47-52.45,13.08-21.28,1.96-40.48-.55-57.16-6.87,8.53,2.99,19.86,7.11,28.48,9.82l3.39,1.05c14.85,4.53,31.54,6.16,49.76,4.5,17.22-1.6,34.65-6.07,51.84-12.96,7.03-3.7-2.21-7.45-6-8.49"/>
    <path class="cls-3" d="M558.82,531.91c-3-.88-10.49-2.28-15.42,3.47-43.52,68.57-113.37,119.98-180.11,126.14-34.12,3.15-62.57-6.01-83.26-24.21,7.14,5.87,16.57,13.76,24.01,19.45,20.7,15.64,47.91,23.22,79.99,20.26,68.66-6.33,140.52-59.21,185.3-129.78,3.95-8.87-6.54-14.17-10.52-15.34"/>
    <path class="cls-1" d="M478.58,344.15l-42.39-11.52,9.76,10.23c-.06.03-.12.04-.18.07-59.05,40.41-109.09,107.06-128.66,179.61-22.02,81.76.73,148.37,52.23,174.95l23.38,11.27,7.28,3.22c-56.1-24.27-81.72-93.1-58.74-178.33,18.7-69.35,65.29-133.08,120.95-173.99l7.34,7.29,9.03-22.79Z"/>
    <path class="cls-1" d="M506.25,425.64l-42.9,1.09,10.44,5.88s-.1.06-.15.1c-45.92,44.52-78.81,108.78-83.03,171.97-4.74,71.22,28.22,121.36,79.75,133.16l23.24,4.7,7.18,1.23c-55.26-9.03-91.22-60.43-86.26-134.68,4.04-60.4,36.6-119.36,79.35-163.63l8.54,5.09,3.85-24.91Z"/>
    <path class="cls-1" d="M341.92,427.55l8.28,5,.07-24.9-42.95-1.89,14.85,9.46s-.02.02-.03.03c-18.3,27.43-32.58,57.68-41.04,89.04-20.08,74.44-2.22,136.03,40.9,165.23l18.36,11.74,9.41,5.55c-48.27-27.76-69.12-92.58-47.78-171.65,8.29-30.81,22.23-60.49,39.93-87.6"/>
    <path class="cls-1" d="M376.44,560.98l10.34,3.4-6.92-27.37-38.88,11.62,9.3,3.26c-13.63,82.07,14,146.45,67.99,168.27,8.47,3.38,19.93,7.37,28.48,10.49l3.4,1.12c-58.29-18.96-88.53-85.32-73.72-170.79"/>
    <path class="cls-1" d="M267.87,496.95c4.26-15.84,10.04-31.38,17.08-46.4l13.44,6.8-3.73-25.45-41.82,1.51,14.35,7.7c-.05.09-.12.14-.18.23-6.86,14.61-12.46,29.75-16.64,45.15-17.66,65.51-4.64,120.64,29.65,150.84,6.9,6,16.75,13.66,24.02,19.45-39.48-29.83-55.29-88.92-36.18-159.81"/>
    <path class="cls-1" d="M292.8,376.06l12.84,7.98.75-24.77-43.11-2.49,15.84,10.39c-24.42,30.04-43.48,65.35-53.49,102.41-14.87,55.16-6.51,102.46,18.71,131.96,5.64,6.4,13.74,14.76,19.76,21.02l1,.99c-30.86-30.08-42.09-82.35-25.47-144.05,10.06-37.29,28.97-72.84,53.15-103.45"/>
    <path class="cls-3" d="M600.52,718.63c-3-.49-10.74-1.3-17.78,1.68-16.59,8.69-33.68,14.98-50.85,18.35-20.97,4.12-40.33,3.57-57.56-1.02,8.79,2.1,20.48,5.05,29.33,6.87l3.48.7c15.23,3,32,2.92,49.96-.59,16.97-3.34,33.85-9.56,50.25-18.16,6.61-4.39-2.95-7.19-6.83-7.83"/>
  </g>
</svg>